<svg width="508" height="115" viewBox="0 0 508 115" fill="none" xmlns="http://www.w3.org/2000/svg">
<path d="M45.9398 50.3068C46.5471 50.8958 93.3089 9.66304 96.3453 14.3753C99.3818 19.0875 73.2681 33.2245 68.4098 36.7588C63.5514 40.2932 56.8712 57.3752 55.6566 56.1972M49.8723 47.3616C49.8723 47.3616 47.1544 37.3479 46.5471 36.1698C45.9398 34.9918 44.118 30.8685 37.4377 30.2794C30.7575 29.6904 27.1137 33.2246 27.1137 33.2246L1 29.1014C1 29.1014 22.8626 32.6356 27.1137 39.1151C31.3648 45.5945 28.9356 45.0055 30.7575 53.8411C32.5794 62.6767 32.5794 64.4438 37.4377 69.7452C42.2961 75.0465 63.5514 77.4027 67.8025 84.4712C72.0535 91.5397 81.163 106.855 83.5921 105.677M72.6608 85.0602C70.8389 86.2383 83.5921 101.553 83.5921 101.553C83.5921 101.553 92.7016 110.978 93.9162 108.622C95.1308 106.266 73.8754 88.5931 60.5149 59.1424C60.5149 59.1424 65.9806 63.2657 71.4462 58.5534M62.3368 55.6082C75.6973 57.9644 77.5192 51.4849 77.5192 51.4849M64.766 50.8959C64.766 50.8959 79.3411 52.663 82.9848 44.4164M67.1952 46.1835C67.1952 46.1835 86.0213 45.0055 88.4505 34.9918M67.8025 41.4712C67.8025 41.4712 91.487 36.1698 93.3089 24.389" stroke="#DFD7B2" stroke-width="2"/>
<path d="M105.613 80.2516V78.7806C107.394 78.729 108.787 78.3935 109.794 77.7742C110.826 77.1806 111.548 76.2 111.961 74.8323C112.4 73.4903 112.619 71.6452 112.619 69.2968V48.4323C112.619 47.5032 112.503 46.8194 112.271 46.3806C112.039 45.9161 111.561 45.5935 110.839 45.4129C110.116 45.2323 109.032 45.129 107.587 45.1032V43.5935C108.852 43.671 111.097 43.7097 114.323 43.7097C117.316 43.7097 119.484 43.671 120.826 43.5935V45.1032C119.484 45.129 118.49 45.2323 117.845 45.4129C117.2 45.5935 116.761 45.9161 116.529 46.3806C116.323 46.8194 116.219 47.5032 116.219 48.4323V67.7097C116.219 70.7548 115.871 73.1935 115.174 75.0258C114.503 76.8839 113.394 78.2129 111.845 79.0129C110.297 79.8387 108.219 80.2516 105.613 80.2516ZM127.663 71.5419C125.908 71.5419 124.515 71.0903 123.483 70.1871C122.45 69.2581 121.934 68.0065 121.934 66.4323C121.934 65.2452 122.218 64.2774 122.786 63.529C123.379 62.7806 124.128 62.1871 125.031 61.7484C125.96 61.2839 126.941 60.9097 127.973 60.6258C129.005 60.3419 129.973 60.0839 130.876 59.8516C131.805 59.5935 132.554 59.2968 133.121 58.9613C133.715 58.6258 134.012 58.1742 134.012 57.6065V55.7871C134.012 54.5484 133.637 53.6194 132.889 53C132.166 52.3806 131.083 52.071 129.637 52.071C128.579 52.071 127.689 52.2129 126.966 52.4968C126.244 52.7806 125.883 53.1419 125.883 53.5806C125.883 53.8129 125.96 54.071 126.115 54.3548C126.296 54.6129 126.463 54.9097 126.618 55.2452C126.799 55.5548 126.889 55.8903 126.889 56.2516C126.889 56.7419 126.708 57.1419 126.347 57.4516C126.012 57.7613 125.56 57.9161 124.992 57.9161C124.296 57.9161 123.728 57.6968 123.289 57.2581C122.876 56.7935 122.67 56.1871 122.67 55.4387C122.67 54.5097 123.031 53.6839 123.754 52.9613C124.476 52.2129 125.444 51.6194 126.657 51.1806C127.87 50.7419 129.237 50.5226 130.76 50.5226C132.334 50.5226 133.612 50.7677 134.592 51.2581C135.599 51.7484 136.334 52.5097 136.799 53.5419C137.263 54.5742 137.496 55.9032 137.496 57.529V67.7871C137.496 68.4065 137.599 68.871 137.805 69.1806C138.037 69.4645 138.373 69.6065 138.812 69.6065C139.276 69.6065 139.728 69.4903 140.166 69.2581C140.631 69.0258 141.07 68.7548 141.483 68.4452L142.218 69.6839C141.547 70.2774 140.85 70.729 140.128 71.0387C139.431 71.3742 138.605 71.5419 137.65 71.5419C135.225 71.5419 134.012 70.3935 134.012 68.0968C133.263 69.2323 132.347 70.0968 131.263 70.6903C130.205 71.2581 129.005 71.5419 127.663 71.5419ZM128.979 69.2581C129.96 69.2581 130.876 69.0129 131.728 68.5226C132.605 68.0323 133.366 67.3355 134.012 66.4323V59.6194C133.754 60.0323 133.289 60.3806 132.618 60.6645C131.973 60.9226 131.25 61.1935 130.45 61.4774C129.65 61.7355 128.876 62.0452 128.128 62.4065C127.405 62.7677 126.799 63.2323 126.308 63.8C125.818 64.3677 125.573 65.1161 125.573 66.0452C125.573 67.0516 125.87 67.8387 126.463 68.4065C127.083 68.9742 127.921 69.2581 128.979 69.2581ZM156.501 71V69.4903C157.662 69.4645 158.45 69.2581 158.862 68.871C159.301 68.4581 159.52 67.7355 159.52 66.7032V57.7226C159.52 55.9935 159.185 54.6903 158.514 53.8129C157.843 52.9355 156.837 52.4968 155.495 52.4968C154.411 52.4968 153.391 52.8065 152.437 53.4258C151.508 54.0194 150.682 54.8968 149.959 56.0581L149.998 54.3548C150.643 53.1677 151.559 52.2387 152.746 51.5677C153.959 50.871 155.288 50.5226 156.733 50.5226C158.746 50.5226 160.295 51.1677 161.379 52.4581C162.462 53.7226 163.004 55.5419 163.004 57.9161V66.7032C163.004 67.7355 163.327 68.4581 163.972 68.871C164.617 69.2581 165.779 69.4645 167.456 69.4903V71C167.069 70.9742 166.527 70.9613 165.83 70.9613C165.159 70.9355 164.424 70.9097 163.624 70.8839C162.824 70.8581 162.05 70.8452 161.301 70.8452C160.372 70.8452 159.456 70.871 158.553 70.9226C157.65 70.9484 156.966 70.9742 156.501 71ZM142.256 71V69.4903C143.933 69.4645 145.095 69.2581 145.74 68.871C146.385 68.4581 146.708 67.7355 146.708 66.7032V55.9806C146.708 54.7677 146.372 53.9161 145.701 53.4258C145.03 52.9097 143.882 52.6258 142.256 52.5742V51.0645C142.772 51.0903 143.301 51.1161 143.843 51.1419C144.385 51.1677 144.953 51.1806 145.546 51.1806C146.398 51.1806 147.211 51.1419 147.985 51.0645C148.759 50.9613 149.495 50.8194 150.191 50.6387V66.7032C150.191 67.7355 150.411 68.4581 150.85 68.871C151.288 69.2581 152.075 69.4645 153.211 69.4903V71C152.617 70.9742 151.895 70.9484 151.043 70.9226C150.191 70.871 149.301 70.8452 148.372 70.8452C147.314 70.8452 146.217 70.871 145.082 70.9226C143.972 70.9484 143.03 70.9742 142.256 71ZM167.898 71V69.4903C169.55 69.4645 170.698 69.2581 171.344 68.871C172.015 68.4839 172.35 67.7613 172.35 66.7032V55.9806C172.35 54.7935 172.028 53.9419 171.382 53.4258C170.737 52.9097 169.576 52.6258 167.898 52.5742V51.0645C168.415 51.0903 168.944 51.1161 169.486 51.1419C170.053 51.1677 170.621 51.1806 171.189 51.1806C172.066 51.1806 172.892 51.1419 173.666 51.0645C174.466 50.9613 175.189 50.8194 175.834 50.6387V66.7032C175.834 67.7613 176.157 68.4839 176.802 68.871C177.473 69.2581 178.634 69.4645 180.286 69.4903V71C179.898 70.9742 179.357 70.9613 178.66 70.9613C177.989 70.9355 177.253 70.9097 176.453 70.8839C175.653 70.8581 174.853 70.8452 174.053 70.8452C172.892 70.8452 171.718 70.871 170.531 70.9226C169.369 70.9484 168.492 70.9742 167.898 71ZM173.976 46.4194C173.279 46.4194 172.673 46.1742 172.157 45.6839C171.666 45.1677 171.421 44.5613 171.421 43.8645C171.421 43.1677 171.666 42.5742 172.157 42.0839C172.673 41.5677 173.279 41.3097 173.976 41.3097C174.673 41.3097 175.266 41.5677 175.757 42.0839C176.247 42.5742 176.492 43.1677 176.492 43.8645C176.492 44.5613 176.247 45.1677 175.757 45.6839C175.266 46.1742 174.673 46.4194 173.976 46.4194ZM195.13 71V69.4903C196.291 69.4645 197.078 69.2581 197.491 68.871C197.93 68.4581 198.149 67.7355 198.149 66.7032V57.7226C198.149 55.9935 197.814 54.6903 197.143 53.8129C196.472 52.9355 195.465 52.4968 194.123 52.4968C193.04 52.4968 192.02 52.8065 191.065 53.4258C190.136 54.0194 189.311 54.8968 188.588 56.0581L188.627 54.3548C189.272 53.1677 190.188 52.2387 191.375 51.5677C192.588 50.871 193.917 50.5226 195.362 50.5226C197.375 50.5226 198.923 51.1677 200.007 52.4581C201.091 53.7226 201.633 55.5419 201.633 57.9161V66.7032C201.633 67.7355 201.956 68.4581 202.601 68.871C203.246 69.2581 204.407 69.4645 206.085 69.4903V71C205.698 70.9742 205.156 70.9613 204.459 70.9613C203.788 70.9355 203.052 70.9097 202.252 70.8839C201.452 70.8581 200.678 70.8452 199.93 70.8452C199.001 70.8452 198.085 70.871 197.181 70.9226C196.278 70.9484 195.594 70.9742 195.13 71ZM180.885 71V69.4903C182.562 69.4645 183.723 69.2581 184.369 68.871C185.014 68.4581 185.336 67.7355 185.336 66.7032V55.9806C185.336 54.7677 185.001 53.9161 184.33 53.4258C183.659 52.9097 182.511 52.6258 180.885 52.5742V51.0645C181.401 51.0903 181.93 51.1161 182.472 51.1419C183.014 51.1677 183.581 51.1806 184.175 51.1806C185.027 51.1806 185.84 51.1419 186.614 51.0645C187.388 50.9613 188.123 50.8194 188.82 50.6387V66.7032C188.82 67.7355 189.04 68.4581 189.478 68.871C189.917 69.2581 190.704 69.4645 191.84 69.4903V71C191.246 70.9742 190.523 70.9484 189.672 70.9226C188.82 70.871 187.93 70.8452 187.001 70.8452C185.943 70.8452 184.846 70.871 183.711 70.9226C182.601 70.9484 181.659 70.9742 180.885 71ZM216.728 71.5419C214.87 71.5419 213.257 71.129 211.889 70.3032C210.522 69.4516 209.464 68.2387 208.715 66.6645C207.967 65.0903 207.593 63.2323 207.593 61.0903C207.593 58.9484 207.967 57.0903 208.715 55.5161C209.464 53.9161 210.535 52.6903 211.928 51.8387C213.347 50.9613 215.025 50.5226 216.96 50.5226C218.612 50.5226 220.044 50.8581 221.257 51.529C222.496 52.1742 223.438 53.1935 224.083 54.5871C224.754 55.9806 225.064 57.7871 225.012 60.0065H209.877L209.838 58.5355H221.296C221.347 57.2968 221.206 56.1871 220.87 55.2065C220.56 54.2258 220.057 53.4516 219.36 52.8839C218.689 52.2903 217.825 51.9935 216.767 51.9935C215.425 51.9935 214.238 52.5613 213.206 53.6968C212.173 54.8065 211.567 56.5355 211.386 58.8839L211.425 59C211.399 59.2839 211.373 59.5806 211.347 59.8903C211.347 60.2 211.347 60.5226 211.347 60.8581C211.347 63.6194 211.889 65.7484 212.973 67.2452C214.057 68.7419 215.606 69.4903 217.618 69.4903C218.909 69.4903 220.07 69.1677 221.102 68.5226C222.135 67.8774 222.973 66.8839 223.618 65.5419L225.012 66.3548C224.341 67.9548 223.283 69.2194 221.838 70.1484C220.393 71.0774 218.689 71.5419 216.728 71.5419ZM249.291 71.5419C246.839 71.5419 244.697 70.9742 242.865 69.8387C241.058 68.6774 239.652 67.0645 238.645 65C237.665 62.9097 237.175 60.471 237.175 57.6839C237.175 54.7935 237.704 52.2516 238.762 50.0581C239.82 47.8645 241.278 46.1484 243.136 44.9097C244.994 43.671 247.149 43.0516 249.6 43.0516C250.736 43.0516 251.742 43.1806 252.62 43.4387C253.497 43.671 254.245 43.9677 254.865 44.329C255.51 44.6645 256.065 44.9613 256.529 45.2194C257.02 45.4516 257.458 45.5677 257.845 45.5677C258.207 45.5677 258.491 45.3871 258.697 45.0258C258.904 44.6645 259.058 44.071 259.162 43.2452H260.71C260.684 43.9161 260.658 44.6774 260.633 45.529C260.607 46.3548 260.581 47.3871 260.555 48.6258C260.555 49.8645 260.555 51.4258 260.555 53.3097H259.007C258.697 51.5032 258.116 49.9548 257.265 48.6645C256.413 47.3484 255.355 46.329 254.091 45.6065C252.852 44.8839 251.445 44.5226 249.871 44.5226C247.11 44.5226 244.942 45.6452 243.368 47.8903C241.82 50.1355 241.045 53.2452 241.045 57.2194C241.045 61.2194 241.833 64.3677 243.407 66.6645C244.981 68.9355 247.136 70.071 249.871 70.071C251.471 70.071 252.904 69.7097 254.168 68.9871C255.433 68.2387 256.491 67.2065 257.342 65.8903C258.194 64.5742 258.749 63.0387 259.007 61.2839H260.555C260.555 63.0903 260.555 64.6129 260.555 65.8516C260.581 67.0645 260.607 68.1097 260.633 68.9871C260.658 69.8645 260.684 70.6516 260.71 71.3484H259.162C259.058 70.4968 258.904 69.9032 258.697 69.5677C258.516 69.2323 258.233 69.0645 257.845 69.0645C257.433 69.0645 256.981 69.1935 256.491 69.4516C256 69.6839 255.42 69.9677 254.749 70.3032C254.104 70.6387 253.329 70.9226 252.426 71.1548C251.549 71.4129 250.504 71.5419 249.291 71.5419ZM273.935 71.5419C272.206 71.5419 270.632 71.1806 269.213 70.4581C267.819 69.7097 266.71 68.5742 265.884 67.0516C265.058 65.5032 264.645 63.5032 264.645 61.0516C264.645 58.6 265.058 56.6 265.884 55.0516C266.71 53.5032 267.819 52.3677 269.213 51.6452C270.632 50.8968 272.206 50.5226 273.935 50.5226C275.69 50.5226 277.264 50.8968 278.658 51.6452C280.052 52.3677 281.161 53.5032 281.987 55.0516C282.813 56.6 283.226 58.6 283.226 61.0516C283.226 63.5032 282.813 65.5032 281.987 67.0516C281.161 68.5742 280.052 69.7097 278.658 70.4581C277.264 71.1806 275.69 71.5419 273.935 71.5419ZM273.935 70.0323C275.561 70.0323 276.89 69.3226 277.923 67.9032C278.955 66.4839 279.471 64.2 279.471 61.0516C279.471 57.9032 278.955 55.6194 277.923 54.2C276.89 52.7548 275.561 52.0323 273.935 52.0323C272.31 52.0323 270.981 52.7548 269.948 54.2C268.916 55.6194 268.4 57.9032 268.4 61.0516C268.4 64.2 268.916 66.4839 269.948 67.9032C270.981 69.3226 272.31 70.0323 273.935 70.0323ZM295.908 71.5419C294.049 71.5419 292.437 71.129 291.069 70.3032C289.701 69.4516 288.643 68.2387 287.895 66.6645C287.146 65.0903 286.772 63.2323 286.772 61.0903C286.772 58.9484 287.146 57.0903 287.895 55.5161C288.643 53.9161 289.714 52.6903 291.108 51.8387C292.527 50.9613 294.204 50.5226 296.14 50.5226C297.791 50.5226 299.224 50.8581 300.437 51.529C301.675 52.1742 302.617 53.1935 303.262 54.5871C303.933 55.9806 304.243 57.7871 304.191 60.0065H289.056L289.017 58.5355H300.475C300.527 57.2968 300.385 56.1871 300.049 55.2065C299.74 54.2258 299.237 53.4516 298.54 52.8839C297.869 52.2903 297.004 51.9935 295.946 51.9935C294.604 51.9935 293.417 52.5613 292.385 53.6968C291.353 54.8065 290.746 56.5355 290.566 58.8839L290.604 59C290.578 59.2839 290.553 59.5806 290.527 59.8903C290.527 60.2 290.527 60.5226 290.527 60.8581C290.527 63.6194 291.069 65.7484 292.153 67.2452C293.237 68.7419 294.785 69.4903 296.798 69.4903C298.088 69.4903 299.249 69.1677 300.282 68.5226C301.314 67.8774 302.153 66.8839 302.798 65.5419L304.191 66.3548C303.52 67.9548 302.462 69.2194 301.017 70.1484C299.572 71.0774 297.869 71.5419 295.908 71.5419ZM305.696 71V69.4903C307.347 69.4645 308.496 69.2581 309.141 68.871C309.812 68.4839 310.147 67.7613 310.147 66.7032V45.9935C310.147 44.8065 309.812 43.9548 309.141 43.4387C308.496 42.9226 307.347 42.6387 305.696 42.5871V41.0774C306.212 41.1032 306.741 41.129 307.283 41.1548C307.851 41.1806 308.418 41.1935 308.986 41.1935C309.838 41.1935 310.663 41.1548 311.463 41.0774C312.263 40.9742 312.986 40.8323 313.631 40.6516V66.7032C313.631 67.7613 313.954 68.4839 314.599 68.871C315.27 69.2581 316.418 69.4645 318.044 69.4903V71C317.657 70.9742 317.128 70.9613 316.457 70.9613C315.786 70.9355 315.051 70.9097 314.251 70.8839C313.451 70.8581 312.651 70.8452 311.851 70.8452C310.689 70.8452 309.515 70.871 308.328 70.9226C307.167 70.9484 306.289 70.9742 305.696 71ZM332.693 71V69.4903C333.854 69.4645 334.641 69.2581 335.054 68.871C335.493 68.4581 335.712 67.7355 335.712 66.7032V57.7226C335.712 55.9935 335.377 54.6903 334.706 53.8129C334.035 52.9355 333.028 52.4968 331.686 52.4968C330.602 52.4968 329.583 52.8065 328.628 53.4258C327.673 54.0194 326.848 54.8968 326.151 56.0581L326.189 54.3548C326.835 53.1677 327.751 52.2387 328.938 51.5677C330.151 50.871 331.48 50.5226 332.925 50.5226C334.938 50.5226 336.486 51.1677 337.57 52.4581C338.654 53.7226 339.196 55.5419 339.196 57.9161V66.7032C339.196 67.7355 339.519 68.4581 340.164 68.871C340.809 69.2581 341.97 69.4645 343.648 69.4903V71C343.26 70.9742 342.719 70.9613 342.022 70.9613C341.351 70.9355 340.615 70.9097 339.815 70.8839C339.015 70.8581 338.241 70.8452 337.493 70.8452C336.564 70.8452 335.648 70.871 334.744 70.9226C333.841 70.9484 333.157 70.9742 332.693 71ZM318.448 71V69.4903C320.125 69.4645 321.286 69.2581 321.931 68.871C322.577 68.4581 322.899 67.7355 322.899 66.7032V46.0323C322.899 44.7935 322.564 43.929 321.893 43.4387C321.248 42.9226 320.099 42.6516 318.448 42.6258V41.0774C318.964 41.1032 319.493 41.129 320.035 41.1548C320.602 41.1806 321.17 41.1935 321.738 41.1935C322.589 41.1935 323.402 41.1548 324.177 41.0774C324.951 40.9742 325.686 40.8323 326.383 40.6516V66.7032C326.383 67.7355 326.589 68.4581 327.002 68.871C327.441 69.2581 328.241 69.4645 329.402 69.4903V71C328.886 70.9742 328.177 70.9484 327.273 70.9226C326.396 70.871 325.493 70.8452 324.564 70.8452C323.506 70.8452 322.396 70.871 321.235 70.9226C320.099 70.9484 319.17 70.9742 318.448 71ZM354.427 71.5419C352.698 71.5419 351.124 71.1806 349.705 70.4581C348.311 69.7097 347.202 68.5742 346.376 67.0516C345.55 65.5032 345.137 63.5032 345.137 61.0516C345.137 58.6 345.55 56.6 346.376 55.0516C347.202 53.5032 348.311 52.3677 349.705 51.6452C351.124 50.8968 352.698 50.5226 354.427 50.5226C356.182 50.5226 357.756 50.8968 359.15 51.6452C360.543 52.3677 361.653 53.5032 362.479 55.0516C363.305 56.6 363.718 58.6 363.718 61.0516C363.718 63.5032 363.305 65.5032 362.479 67.0516C361.653 68.5742 360.543 69.7097 359.15 70.4581C357.756 71.1806 356.182 71.5419 354.427 71.5419ZM354.427 70.0323C356.053 70.0323 357.382 69.3226 358.414 67.9032C359.447 66.4839 359.963 64.2 359.963 61.0516C359.963 57.9032 359.447 55.6194 358.414 54.2C357.382 52.7548 356.053 52.0323 354.427 52.0323C352.802 52.0323 351.473 52.7548 350.44 54.2C349.408 55.6194 348.892 57.9032 348.892 61.0516C348.892 64.2 349.408 66.4839 350.44 67.9032C351.473 69.3226 352.802 70.0323 354.427 70.0323ZM387.866 71.5419C385.415 71.5419 383.273 70.9742 381.44 69.8387C379.634 68.6774 378.228 67.0645 377.221 65C376.24 62.9097 375.75 60.471 375.75 57.6839C375.75 54.7935 376.279 52.2516 377.337 50.0581C378.395 47.8645 379.853 46.1484 381.711 44.9097C383.569 43.671 385.724 43.0516 388.176 43.0516C389.311 43.0516 390.318 43.1806 391.195 43.4387C392.073 43.671 392.821 43.9677 393.44 44.329C394.086 44.6645 394.64 44.9613 395.105 45.2194C395.595 45.4516 396.034 45.5677 396.421 45.5677C396.782 45.5677 397.066 45.3871 397.273 45.0258C397.479 44.6645 397.634 44.071 397.737 43.2452H399.286C399.26 43.9161 399.234 44.6774 399.208 45.529C399.182 46.3548 399.157 47.3871 399.131 48.6258C399.131 49.8645 399.131 51.4258 399.131 53.3097H397.582C397.273 51.5032 396.692 49.9548 395.84 48.6645C394.989 47.3484 393.931 46.329 392.666 45.6065C391.428 44.8839 390.021 44.5226 388.447 44.5226C385.686 44.5226 383.518 45.6452 381.944 47.8903C380.395 50.1355 379.621 53.2452 379.621 57.2194C379.621 61.2194 380.408 64.3677 381.982 66.6645C383.557 68.9355 385.711 70.071 388.447 70.071C390.047 70.071 391.479 69.7097 392.744 68.9871C394.008 68.2387 395.066 67.2065 395.918 65.8903C396.769 64.5742 397.324 63.0387 397.582 61.2839H399.131C399.131 63.0903 399.131 64.6129 399.131 65.8516C399.157 67.0645 399.182 68.1097 399.208 68.9871C399.234 69.8645 399.26 70.6516 399.286 71.3484H397.737C397.634 70.4968 397.479 69.9032 397.273 69.5677C397.092 69.2323 396.808 69.0645 396.421 69.0645C396.008 69.0645 395.557 69.1935 395.066 69.4516C394.576 69.6839 393.995 69.9677 393.324 70.3032C392.679 70.6387 391.905 70.9226 391.002 71.1548C390.124 71.4129 389.079 71.5419 387.866 71.5419ZM412.511 71.5419C410.782 71.5419 409.208 71.1806 407.789 70.4581C406.395 69.7097 405.285 68.5742 404.459 67.0516C403.634 65.5032 403.221 63.5032 403.221 61.0516C403.221 58.6 403.634 56.6 404.459 55.0516C405.285 53.5032 406.395 52.3677 407.789 51.6452C409.208 50.8968 410.782 50.5226 412.511 50.5226C414.266 50.5226 415.84 50.8968 417.234 51.6452C418.627 52.3677 419.737 53.5032 420.563 55.0516C421.389 56.6 421.801 58.6 421.801 61.0516C421.801 63.5032 421.389 65.5032 420.563 67.0516C419.737 68.5742 418.627 69.7097 417.234 70.4581C415.84 71.1806 414.266 71.5419 412.511 71.5419ZM412.511 70.0323C414.137 70.0323 415.466 69.3226 416.498 67.9032C417.53 66.4839 418.047 64.2 418.047 61.0516C418.047 57.9032 417.53 55.6194 416.498 54.2C415.466 52.7548 414.137 52.0323 412.511 52.0323C410.885 52.0323 409.556 52.7548 408.524 54.2C407.492 55.6194 406.976 57.9032 406.976 61.0516C406.976 64.2 407.492 66.4839 408.524 67.9032C409.556 69.3226 410.885 70.0323 412.511 70.0323ZM424.048 71V69.4903C425.725 69.4645 426.887 69.2581 427.532 68.871C428.177 68.4581 428.499 67.7355 428.499 66.7032V55.9806C428.499 54.7677 428.164 53.9161 427.493 53.4258C426.822 52.9097 425.674 52.6258 424.048 52.5742V51.0645C424.564 51.0903 425.093 51.1161 425.635 51.1419C426.177 51.1677 426.745 51.1806 427.338 51.1806C428.99 51.1806 430.538 51 431.983 50.6387V66.5097C431.983 67.5935 432.383 68.3548 433.183 68.7935C434.009 69.2323 435.428 69.4645 437.441 69.4903V71C436.977 70.9742 436.345 70.9613 435.545 70.9613C434.77 70.9355 433.919 70.9097 432.99 70.8839C432.087 70.8581 431.183 70.8452 430.28 70.8452C429.041 70.8452 427.841 70.871 426.68 70.9226C425.519 70.9484 424.641 70.9742 424.048 71ZM439.416 57.1806C438.899 57.1806 438.461 57.0258 438.099 56.7161C437.764 56.4065 437.596 56.0194 437.596 55.5548C437.596 55.1935 437.661 54.8839 437.79 54.6258C437.945 54.3677 438.087 54.1226 438.216 53.8903C438.345 53.6581 438.409 53.4258 438.409 53.1935C438.409 52.6516 438.009 52.3806 437.209 52.3806C436.564 52.3806 435.88 52.5484 435.158 52.8839C434.435 53.2194 433.777 53.6581 433.183 54.2C432.59 54.7419 432.151 55.3484 431.867 56.0194L431.751 54.3935C432.474 53.1548 433.377 52.2 434.461 51.529C435.57 50.8581 436.732 50.5226 437.945 50.5226C439.158 50.5226 440.112 50.871 440.809 51.5677C441.532 52.2387 441.893 53.129 441.893 54.2387C441.893 55.1161 441.661 55.8258 441.196 56.3677C440.758 56.9097 440.164 57.1806 439.416 57.1806ZM442.847 71V69.4903C444.524 69.4645 445.685 69.2581 446.33 68.871C446.976 68.4581 447.298 67.7355 447.298 66.7032V55.9806C447.298 54.7677 446.963 53.9161 446.292 53.4258C445.621 52.9097 444.472 52.6258 442.847 52.5742V51.0645C443.363 51.0903 443.892 51.1161 444.434 51.1419C444.976 51.1677 445.543 51.1806 446.137 51.1806C447.789 51.1806 449.337 51 450.782 50.6387V66.5097C450.782 67.5935 451.182 68.3548 451.982 68.7935C452.808 69.2323 454.227 69.4645 456.24 69.4903V71C455.776 70.9742 455.143 70.9613 454.343 70.9613C453.569 70.9355 452.718 70.9097 451.789 70.8839C450.885 70.8581 449.982 70.8452 449.079 70.8452C447.84 70.8452 446.64 70.871 445.479 70.9226C444.318 70.9484 443.44 70.9742 442.847 71ZM458.214 57.1806C457.698 57.1806 457.26 57.0258 456.898 56.7161C456.563 56.4065 456.395 56.0194 456.395 55.5548C456.395 55.1935 456.46 54.8839 456.589 54.6258C456.743 54.3677 456.885 54.1226 457.014 53.8903C457.143 53.6581 457.208 53.4258 457.208 53.1935C457.208 52.6516 456.808 52.3806 456.008 52.3806C455.363 52.3806 454.679 52.5484 453.956 52.8839C453.234 53.2194 452.576 53.6581 451.982 54.2C451.389 54.7419 450.95 55.3484 450.666 56.0194L450.55 54.3935C451.272 53.1548 452.176 52.2 453.26 51.529C454.369 50.8581 455.53 50.5226 456.743 50.5226C457.956 50.5226 458.911 50.871 459.608 51.5677C460.33 52.2387 460.692 53.129 460.692 54.2387C460.692 55.1161 460.46 55.8258 459.995 56.3677C459.556 56.9097 458.963 57.1806 458.214 57.1806ZM471.284 71.5419C469.426 71.5419 467.813 71.129 466.445 70.3032C465.077 69.4516 464.019 68.2387 463.271 66.6645C462.522 65.0903 462.148 63.2323 462.148 61.0903C462.148 58.9484 462.522 57.0903 463.271 55.5161C464.019 53.9161 465.09 52.6903 466.484 51.8387C467.903 50.9613 469.581 50.5226 471.516 50.5226C473.168 50.5226 474.6 50.8581 475.813 51.529C477.051 52.1742 477.993 53.1935 478.639 54.5871C479.31 55.9806 479.619 57.7871 479.568 60.0065H464.432L464.393 58.5355H475.851C475.903 57.2968 475.761 56.1871 475.426 55.2065C475.116 54.2258 474.613 53.4516 473.916 52.8839C473.245 52.2903 472.381 51.9935 471.322 51.9935C469.981 51.9935 468.793 52.5613 467.761 53.6968C466.729 54.8065 466.122 56.5355 465.942 58.8839L465.981 59C465.955 59.2839 465.929 59.5806 465.903 59.8903C465.903 60.2 465.903 60.5226 465.903 60.8581C465.903 63.6194 466.445 65.7484 467.529 67.2452C468.613 68.7419 470.161 69.4903 472.174 69.4903C473.464 69.4903 474.626 69.1677 475.658 68.5226C476.69 67.8774 477.529 66.8839 478.174 65.5419L479.568 66.3548C478.897 67.9548 477.839 69.2194 476.393 70.1484C474.948 71.0774 473.245 71.5419 471.284 71.5419ZM488.775 71.5419C487.02 71.5419 485.627 71.0903 484.594 70.1871C483.562 69.2581 483.046 68.0065 483.046 66.4323C483.046 65.2452 483.33 64.2774 483.898 63.529C484.491 62.7806 485.24 62.1871 486.143 61.7484C487.072 61.2839 488.053 60.9097 489.085 60.6258C490.117 60.3419 491.085 60.0839 491.988 59.8516C492.917 59.5935 493.665 59.2968 494.233 58.9613C494.827 58.6258 495.124 58.1742 495.124 57.6065V55.7871C495.124 54.5484 494.749 53.6194 494.001 53C493.278 52.3806 492.194 52.071 490.749 52.071C489.691 52.071 488.801 52.2129 488.078 52.4968C487.356 52.7806 486.994 53.1419 486.994 53.5806C486.994 53.8129 487.072 54.071 487.227 54.3548C487.407 54.6129 487.575 54.9097 487.73 55.2452C487.911 55.5548 488.001 55.8903 488.001 56.2516C488.001 56.7419 487.82 57.1419 487.459 57.4516C487.124 57.7613 486.672 57.9161 486.104 57.9161C485.407 57.9161 484.84 57.6968 484.401 57.2581C483.988 56.7935 483.782 56.1871 483.782 55.4387C483.782 54.5097 484.143 53.6839 484.865 52.9613C485.588 52.2129 486.556 51.6194 487.769 51.1806C488.982 50.7419 490.349 50.5226 491.872 50.5226C493.446 50.5226 494.724 50.7677 495.704 51.2581C496.711 51.7484 497.446 52.5097 497.911 53.5419C498.375 54.5742 498.607 55.9032 498.607 57.529V67.7871C498.607 68.4065 498.711 68.871 498.917 69.1806C499.149 69.4645 499.485 69.6065 499.924 69.6065C500.388 69.6065 500.84 69.4903 501.278 69.2581C501.743 69.0258 502.182 68.7548 502.594 68.4452L503.33 69.6839C502.659 70.2774 501.962 70.729 501.24 71.0387C500.543 71.3742 499.717 71.5419 498.762 71.5419C496.336 71.5419 495.124 70.3935 495.124 68.0968C494.375 69.2323 493.459 70.0968 492.375 70.6903C491.317 71.2581 490.117 71.5419 488.775 71.5419ZM490.091 69.2581C491.072 69.2581 491.988 69.0129 492.84 68.5226C493.717 68.0323 494.478 67.3355 495.124 66.4323V59.6194C494.865 60.0323 494.401 60.3806 493.73 60.6645C493.085 60.9226 492.362 61.1935 491.562 61.4774C490.762 61.7355 489.988 62.0452 489.24 62.4065C488.517 62.7677 487.911 63.2323 487.42 63.8C486.93 64.3677 486.685 65.1161 486.685 66.0452C486.685 67.0516 486.982 67.8387 487.575 68.4065C488.194 68.9742 489.033 69.2581 490.091 69.2581Z" fill="#DFD7B2"/>
<path d="M114.976 24.192C114.976 24.7573 114.843 25.2907 114.576 25.792C114.309 26.2933 113.883 26.704 113.296 27.024C112.709 27.3333 111.957 27.488 111.04 27.488H109.024V32H107.2V20.88H111.04C111.893 20.88 112.613 21.0293 113.2 21.328C113.797 21.616 114.24 22.0107 114.528 22.512C114.827 23.0133 114.976 23.5733 114.976 24.192ZM111.04 26C111.733 26 112.251 25.8453 112.592 25.536C112.933 25.216 113.104 24.768 113.104 24.192C113.104 22.976 112.416 22.368 111.04 22.368H109.024V26H111.04ZM119.276 32.144C118.582 32.144 117.958 32.0213 117.404 31.776C116.86 31.52 116.428 31.1787 116.108 30.752C115.788 30.3147 115.617 29.8293 115.596 29.296H117.484C117.516 29.6693 117.692 29.984 118.012 30.24C118.342 30.4853 118.753 30.608 119.244 30.608C119.756 30.608 120.15 30.512 120.428 30.32C120.716 30.1173 120.86 29.8613 120.86 29.552C120.86 29.2213 120.7 28.976 120.38 28.816C120.07 28.656 119.574 28.48 118.892 28.288C118.23 28.1067 117.692 27.9307 117.276 27.76C116.86 27.5893 116.497 27.328 116.188 26.976C115.889 26.624 115.74 26.16 115.74 25.584C115.74 25.1147 115.878 24.688 116.156 24.304C116.433 23.9093 116.828 23.6 117.34 23.376C117.862 23.152 118.46 23.04 119.132 23.04C120.134 23.04 120.94 23.296 121.548 23.808C122.166 24.3093 122.497 24.9973 122.54 25.872H120.716C120.684 25.4773 120.524 25.1627 120.236 24.928C119.948 24.6933 119.558 24.576 119.068 24.576C118.588 24.576 118.22 24.6667 117.964 24.848C117.708 25.0293 117.58 25.2693 117.58 25.568C117.58 25.8027 117.665 26 117.836 26.16C118.006 26.32 118.214 26.448 118.46 26.544C118.705 26.6293 119.068 26.7413 119.548 26.88C120.188 27.0507 120.71 27.2267 121.116 27.408C121.532 27.5787 121.889 27.8347 122.188 28.176C122.486 28.5173 122.641 28.9707 122.652 29.536C122.652 30.0373 122.513 30.4853 122.236 30.88C121.958 31.2747 121.564 31.584 121.052 31.808C120.55 32.032 119.958 32.144 119.276 32.144ZM124.91 22.016C124.58 22.016 124.302 21.904 124.078 21.68C123.854 21.456 123.742 21.1787 123.742 20.848C123.742 20.5173 123.854 20.24 124.078 20.016C124.302 19.792 124.58 19.68 124.91 19.68C125.23 19.68 125.502 19.792 125.726 20.016C125.95 20.24 126.062 20.5173 126.062 20.848C126.062 21.1787 125.95 21.456 125.726 21.68C125.502 21.904 125.23 22.016 124.91 22.016ZM125.806 23.184V32H123.982V23.184H125.806ZM126.953 27.584C126.953 26.6773 127.135 25.8827 127.497 25.2C127.871 24.5067 128.383 23.9733 129.033 23.6C129.684 23.2267 130.431 23.04 131.273 23.04C132.34 23.04 133.22 23.296 133.913 23.808C134.617 24.3093 135.092 25.0293 135.337 25.968H133.369C133.209 25.5307 132.953 25.1893 132.601 24.944C132.249 24.6987 131.807 24.576 131.273 24.576C130.527 24.576 129.929 24.8427 129.481 25.376C129.044 25.8987 128.825 26.6347 128.825 27.584C128.825 28.5333 129.044 29.2747 129.481 29.808C129.929 30.3413 130.527 30.608 131.273 30.608C132.329 30.608 133.028 30.144 133.369 29.216H135.337C135.081 30.112 134.601 30.8267 133.897 31.36C133.193 31.8827 132.319 32.144 131.273 32.144C130.431 32.144 129.684 31.9573 129.033 31.584C128.383 31.2 127.871 30.6667 127.497 29.984C127.135 29.2907 126.953 28.4907 126.953 27.584ZM140.339 32.144C139.507 32.144 138.755 31.9573 138.083 31.584C137.411 31.2 136.883 30.6667 136.499 29.984C136.115 29.2907 135.923 28.4907 135.923 27.584C135.923 26.688 136.12 25.8933 136.515 25.2C136.91 24.5067 137.448 23.9733 138.131 23.6C138.814 23.2267 139.576 23.04 140.419 23.04C141.262 23.04 142.024 23.2267 142.707 23.6C143.39 23.9733 143.928 24.5067 144.323 25.2C144.718 25.8933 144.915 26.688 144.915 27.584C144.915 28.48 144.712 29.2747 144.307 29.968C143.902 30.6613 143.347 31.2 142.643 31.584C141.95 31.9573 141.182 32.144 140.339 32.144ZM140.339 30.56C140.808 30.56 141.246 30.448 141.651 30.224C142.067 30 142.403 29.664 142.659 29.216C142.915 28.768 143.043 28.224 143.043 27.584C143.043 26.944 142.92 26.4053 142.675 25.968C142.43 25.52 142.104 25.184 141.699 24.96C141.294 24.736 140.856 24.624 140.387 24.624C139.918 24.624 139.48 24.736 139.075 24.96C138.68 25.184 138.366 25.52 138.131 25.968C137.896 26.4053 137.779 26.944 137.779 27.584C137.779 28.5333 138.019 29.2693 138.499 29.792C138.99 30.304 139.603 30.56 140.339 30.56ZM142.067 20.672L138.531 22.416V21.072L142.067 19.12V20.672ZM147.902 20.16V32H146.078V20.16H147.902ZM153.481 32.144C152.649 32.144 151.897 31.9573 151.225 31.584C150.553 31.2 150.025 30.6667 149.641 29.984C149.257 29.2907 149.065 28.4907 149.065 27.584C149.065 26.688 149.262 25.8933 149.657 25.2C150.052 24.5067 150.59 23.9733 151.273 23.6C151.956 23.2267 152.718 23.04 153.561 23.04C154.404 23.04 155.166 23.2267 155.849 23.6C156.532 23.9733 157.07 24.5067 157.465 25.2C157.86 25.8933 158.057 26.688 158.057 27.584C158.057 28.48 157.854 29.2747 157.449 29.968C157.044 30.6613 156.489 31.2 155.785 31.584C155.092 31.9573 154.324 32.144 153.481 32.144ZM153.481 30.56C153.95 30.56 154.388 30.448 154.793 30.224C155.209 30 155.545 29.664 155.801 29.216C156.057 28.768 156.185 28.224 156.185 27.584C156.185 26.944 156.062 26.4053 155.817 25.968C155.572 25.52 155.246 25.184 154.841 24.96C154.436 24.736 153.998 24.624 153.529 24.624C153.06 24.624 152.622 24.736 152.217 24.96C151.822 25.184 151.508 25.52 151.273 25.968C151.038 26.4053 150.921 26.944 150.921 27.584C150.921 28.5333 151.161 29.2693 151.641 29.792C152.132 30.304 152.745 30.56 153.481 30.56ZM162.772 23.04C163.455 23.04 164.057 23.1787 164.58 23.456C165.113 23.7227 165.529 24.0587 165.828 24.464V23.184H167.668V32.144C167.668 32.9547 167.497 33.6747 167.156 34.304C166.815 34.944 166.319 35.4453 165.668 35.808C165.028 36.1707 164.26 36.352 163.364 36.352C162.169 36.352 161.177 36.0693 160.388 35.504C159.599 34.9493 159.151 34.192 159.044 33.232H160.852C160.991 33.6907 161.284 34.0587 161.732 34.336C162.191 34.624 162.735 34.768 163.364 34.768C164.1 34.768 164.692 34.544 165.14 34.096C165.599 33.648 165.828 32.9973 165.828 32.144V30.672C165.519 31.088 165.097 31.44 164.564 31.728C164.041 32.0053 163.444 32.144 162.772 32.144C162.004 32.144 161.3 31.952 160.66 31.568C160.031 31.1733 159.529 30.6293 159.156 29.936C158.793 29.232 158.612 28.4373 158.612 27.552C158.612 26.6667 158.793 25.8827 159.156 25.2C159.529 24.5173 160.031 23.9893 160.66 23.616C161.3 23.232 162.004 23.04 162.772 23.04ZM165.828 27.584C165.828 26.976 165.7 26.448 165.444 26C165.199 25.552 164.873 25.2107 164.468 24.976C164.063 24.7413 163.625 24.624 163.156 24.624C162.687 24.624 162.249 24.7413 161.844 24.976C161.439 25.2 161.108 25.536 160.852 25.984C160.607 26.4213 160.484 26.944 160.484 27.552C160.484 28.16 160.607 28.6933 160.852 29.152C161.108 29.6107 161.439 29.9627 161.844 30.208C162.26 30.4427 162.697 30.56 163.156 30.56C163.625 30.56 164.063 30.4427 164.468 30.208C164.873 29.9733 165.199 29.632 165.444 29.184C165.7 28.7253 165.828 28.192 165.828 27.584ZM168.816 27.552C168.816 26.6667 168.997 25.8827 169.36 25.2C169.733 24.5173 170.234 23.9893 170.864 23.616C171.504 23.232 172.208 23.04 172.976 23.04C173.669 23.04 174.272 23.1787 174.784 23.456C175.306 23.7227 175.722 24.0587 176.032 24.464V23.184H177.872V32H176.032V30.688C175.722 31.104 175.301 31.4507 174.768 31.728C174.234 32.0053 173.626 32.144 172.944 32.144C172.186 32.144 171.493 31.952 170.864 31.568C170.234 31.1733 169.733 30.6293 169.36 29.936C168.997 29.232 168.816 28.4373 168.816 27.552ZM176.032 27.584C176.032 26.976 175.904 26.448 175.648 26C175.402 25.552 175.077 25.2107 174.672 24.976C174.266 24.7413 173.829 24.624 173.36 24.624C172.89 24.624 172.453 24.7413 172.048 24.976C171.642 25.2 171.312 25.536 171.056 25.984C170.81 26.4213 170.688 26.944 170.688 27.552C170.688 28.16 170.81 28.6933 171.056 29.152C171.312 29.6107 171.642 29.9627 172.048 30.208C172.464 30.4427 172.901 30.56 173.36 30.56C173.829 30.56 174.266 30.4427 174.672 30.208C175.077 29.9733 175.402 29.632 175.648 29.184C175.904 28.7253 176.032 28.192 176.032 27.584Z" fill="#DFD7B2"/>
<path d="M391.615 96.416C391.615 95.328 391.866 94.352 392.367 93.488C392.879 92.624 393.567 91.952 394.431 91.472C395.306 90.9813 396.26 90.736 397.295 90.736C398.479 90.736 399.53 91.0293 400.447 91.616C401.375 92.192 402.047 93.0133 402.463 94.08H400.271C399.983 93.4933 399.583 93.056 399.071 92.768C398.559 92.48 397.967 92.336 397.295 92.336C396.559 92.336 395.903 92.5013 395.327 92.832C394.751 93.1627 394.298 93.6373 393.967 94.256C393.647 94.8747 393.487 95.5947 393.487 96.416C393.487 97.2373 393.647 97.9573 393.967 98.576C394.298 99.1947 394.751 99.6747 395.327 100.016C395.903 100.347 396.559 100.512 397.295 100.512C397.967 100.512 398.559 100.368 399.071 100.08C399.583 99.792 399.983 99.3547 400.271 98.768H402.463C402.047 99.8347 401.375 100.656 400.447 101.232C399.53 101.808 398.479 102.096 397.295 102.096C396.25 102.096 395.295 101.856 394.431 101.376C393.567 100.885 392.879 100.208 392.367 99.344C391.866 98.48 391.615 97.504 391.615 96.416ZM409.734 102L407.174 97.552H405.782V102H403.958V90.88H407.798C408.651 90.88 409.371 91.0293 409.958 91.328C410.555 91.6267 410.998 92.0267 411.286 92.528C411.585 93.0293 411.734 93.5893 411.734 94.208C411.734 94.9333 411.521 95.5947 411.094 96.192C410.678 96.7787 410.033 97.1787 409.158 97.392L411.91 102H409.734ZM405.782 96.096H407.798C408.481 96.096 408.993 95.9253 409.334 95.584C409.686 95.2427 409.862 94.784 409.862 94.208C409.862 93.632 409.691 93.184 409.35 92.864C409.009 92.5333 408.491 92.368 407.798 92.368H405.782V96.096ZM421.204 94.192C421.204 94.7573 421.07 95.2907 420.804 95.792C420.537 96.2933 420.11 96.704 419.524 97.024C418.937 97.3333 418.185 97.488 417.268 97.488H415.252V102H413.428V90.88H417.268C418.121 90.88 418.841 91.0293 419.428 91.328C420.025 91.616 420.468 92.0107 420.756 92.512C421.054 93.0133 421.204 93.5733 421.204 94.192ZM417.268 96C417.961 96 418.478 95.8453 418.82 95.536C419.161 95.216 419.332 94.768 419.332 94.192C419.332 92.976 418.644 92.368 417.268 92.368H415.252V96H417.268ZM425.579 96.016C425.579 94.1707 425.889 92.7307 426.507 91.696C427.137 90.6507 428.214 90.128 429.739 90.128C431.265 90.128 432.337 90.6507 432.955 91.696C433.585 92.7307 433.899 94.1707 433.899 96.016C433.899 97.8827 433.585 99.344 432.955 100.4C432.337 101.445 431.265 101.968 429.739 101.968C428.214 101.968 427.137 101.445 426.507 100.4C425.889 99.344 425.579 97.8827 425.579 96.016ZM432.107 96.016C432.107 95.152 432.049 94.4213 431.931 93.824C431.825 93.2267 431.601 92.7413 431.259 92.368C430.918 91.984 430.411 91.792 429.739 91.792C429.067 91.792 428.561 91.984 428.219 92.368C427.878 92.7413 427.649 93.2267 427.531 93.824C427.425 94.4213 427.371 95.152 427.371 96.016C427.371 96.912 427.425 97.664 427.531 98.272C427.638 98.88 427.862 99.3707 428.203 99.744C428.555 100.117 429.067 100.304 429.739 100.304C430.411 100.304 430.918 100.117 431.259 99.744C431.611 99.3707 431.841 98.88 431.947 98.272C432.054 97.664 432.107 96.912 432.107 96.016ZM441.461 93.04C441.344 92.5493 441.131 92.1813 440.821 91.936C440.512 91.6907 440.08 91.568 439.525 91.568C438.683 91.568 438.053 91.8933 437.637 92.544C437.221 93.184 437.003 94.2507 436.981 95.744C437.259 95.2747 437.664 94.912 438.197 94.656C438.731 94.4 439.307 94.272 439.925 94.272C440.629 94.272 441.248 94.4267 441.781 94.736C442.325 95.0347 442.747 95.472 443.045 96.048C443.355 96.624 443.509 97.312 443.509 98.112C443.509 98.8587 443.36 99.5253 443.061 100.112C442.773 100.699 442.341 101.163 441.765 101.504C441.189 101.835 440.496 102 439.685 102C438.587 102 437.723 101.76 437.093 101.28C436.475 100.789 436.037 100.101 435.781 99.216C435.536 98.3307 435.413 97.2267 435.413 95.904C435.413 92 436.789 90.048 439.541 90.048C440.608 90.048 441.445 90.336 442.053 90.912C442.672 91.488 443.035 92.1973 443.141 93.04H441.461ZM439.525 95.808C438.875 95.808 438.32 96.0053 437.861 96.4C437.413 96.784 437.189 97.344 437.189 98.08C437.189 98.816 437.397 99.4027 437.813 99.84C438.24 100.267 438.832 100.48 439.589 100.48C440.261 100.48 440.789 100.272 441.173 99.856C441.568 99.44 441.765 98.8853 441.765 98.192C441.765 97.4667 441.573 96.8907 441.189 96.464C440.816 96.0267 440.261 95.808 439.525 95.808ZM450.975 86.896L446.623 104.8H444.831L449.167 86.896H450.975ZM455.67 92V90.336H458.998V102H457.158V92H455.67ZM468.384 91.904H463.024V95.088C463.248 94.7893 463.578 94.5387 464.016 94.336C464.464 94.1333 464.938 94.032 465.44 94.032C466.336 94.032 467.061 94.224 467.616 94.608C468.181 94.992 468.581 95.4773 468.816 96.064C469.061 96.6507 469.184 97.2693 469.184 97.92C469.184 98.7093 469.029 99.4133 468.72 100.032C468.421 100.64 467.968 101.12 467.36 101.472C466.762 101.824 466.026 102 465.152 102C463.989 102 463.056 101.712 462.352 101.136C461.648 100.56 461.226 99.7973 461.088 98.848H462.864C462.981 99.3493 463.242 99.7493 463.648 100.048C464.053 100.336 464.56 100.48 465.168 100.48C465.925 100.48 466.49 100.251 466.864 99.792C467.248 99.3333 467.44 98.7253 467.44 97.968C467.44 97.2 467.248 96.6133 466.864 96.208C466.48 95.792 465.914 95.584 465.168 95.584C464.645 95.584 464.202 95.7173 463.84 95.984C463.488 96.24 463.232 96.592 463.072 97.04H461.344V90.304H468.384V91.904ZM470.219 99.568V98.192L475.595 90.48H477.803V97.984H479.291V99.568H477.803V102H476.011V99.568H470.219ZM476.091 92.336L472.315 97.984H476.091V92.336ZM480.162 96.016C480.162 94.1707 480.471 92.7307 481.09 91.696C481.719 90.6507 482.797 90.128 484.322 90.128C485.847 90.128 486.919 90.6507 487.538 91.696C488.167 92.7307 488.482 94.1707 488.482 96.016C488.482 97.8827 488.167 99.344 487.538 100.4C486.919 101.445 485.847 101.968 484.322 101.968C482.797 101.968 481.719 101.445 481.09 100.4C480.471 99.344 480.162 97.8827 480.162 96.016ZM486.69 96.016C486.69 95.152 486.631 94.4213 486.514 93.824C486.407 93.2267 486.183 92.7413 485.842 92.368C485.501 91.984 484.994 91.792 484.322 91.792C483.65 91.792 483.143 91.984 482.802 92.368C482.461 92.7413 482.231 93.2267 482.114 93.824C482.007 94.4213 481.954 95.152 481.954 96.016C481.954 96.912 482.007 97.664 482.114 98.272C482.221 98.88 482.445 99.3707 482.786 99.744C483.138 100.117 483.65 100.304 484.322 100.304C484.994 100.304 485.501 100.117 485.842 99.744C486.194 99.3707 486.423 98.88 486.53 98.272C486.637 97.664 486.69 96.912 486.69 96.016ZM489.532 92V90.336H492.86V102H491.02V92H489.532ZM495.734 99.52C496.758 98.6347 497.563 97.9093 498.15 97.344C498.747 96.768 499.243 96.1707 499.638 95.552C500.032 94.9333 500.23 94.3147 500.23 93.696C500.23 93.056 500.075 92.5547 499.766 92.192C499.467 91.8293 498.992 91.648 498.342 91.648C497.712 91.648 497.222 91.8507 496.87 92.256C496.528 92.6507 496.347 93.184 496.326 93.856H494.566C494.598 92.64 494.96 91.712 495.654 91.072C496.358 90.4213 497.248 90.096 498.326 90.096C499.488 90.096 500.395 90.416 501.046 91.056C501.707 91.696 502.038 92.5493 502.038 93.616C502.038 94.384 501.84 95.1253 501.446 95.84C501.062 96.544 500.598 97.1787 500.054 97.744C499.52 98.2987 498.838 98.944 498.006 99.68L497.286 100.32H502.358V101.84H494.582V100.512L495.734 99.52Z" fill="#DFD7B2"/>
</svg>
