<svg width="54" height="48" viewBox="0 0 54 48" fill="none" xmlns="http://www.w3.org/2000/svg">
<path d="M25.4468 18.5801C25.7771 18.8653 51.215 -1.1 52.8668 1.18171C54.5186 3.46342 40.313 10.3087 37.6702 12.0201C35.0273 13.7314 31.3933 22.0028 30.7326 21.4323M27.586 17.154C27.586 17.154 26.1075 12.3053 25.7771 11.7349C25.4468 11.1644 24.4557 9.1679 20.8217 8.88268C17.1877 8.59746 15.2056 10.3088 15.2056 10.3088L1 8.31224C1 8.31224 12.893 10.0236 15.2056 13.161C17.5181 16.2984 16.1966 16.0132 17.1877 20.2915C18.1788 24.5698 18.1788 25.4254 20.8217 27.9924C23.4646 30.5594 35.0273 31.7003 37.3398 35.1229C39.6523 38.5455 44.6077 45.9612 45.9292 45.3908M39.9827 35.4081C38.9916 35.9785 45.9292 43.3943 45.9292 43.3943C45.9292 43.3943 50.8846 47.9578 51.5453 46.8169C52.2061 45.676 40.6434 37.1188 33.3755 22.8584C33.3755 22.8584 36.3487 24.855 39.322 22.5732M34.3665 21.1471C41.6345 22.288 42.6256 19.1506 42.6256 19.1506M35.688 18.8654C35.688 18.8654 43.6167 19.721 45.5988 15.7279M37.0094 16.5836C37.0094 16.5836 47.2506 16.0132 48.5721 11.1644M37.3398 14.3019C37.3398 14.3019 50.2239 11.7349 51.215 6.03048" stroke="#5F6750"/>
</svg>
