<svg width="533" height="115" viewBox="0 0 533 115" fill="none" xmlns="http://www.w3.org/2000/svg">
<path d="M45.1922 50.3068C45.7894 50.8958 91.7732 9.66304 94.7592 14.3753C97.7452 19.0875 72.0659 33.2245 67.2883 36.7588C62.5108 40.2932 55.9417 57.3752 54.7473 56.1972M49.0593 47.3616C49.0593 47.3616 46.3866 37.3479 45.7894 36.1698C45.1922 34.9918 43.4007 30.8685 36.8315 30.2794C30.2624 29.6904 26.6793 33.2246 26.6793 33.2246L1 29.1014C1 29.1014 22.4989 32.6356 26.6793 39.1151C30.8596 45.5945 28.4708 45.0055 30.2624 53.8411C32.054 62.6767 32.054 64.4438 36.8315 69.7452C41.6091 75.0465 62.5108 77.4027 66.6912 84.4712C70.8715 91.5397 79.8294 106.855 82.2182 105.677M71.4687 85.0602C69.6771 86.2383 82.2182 101.553 82.2182 101.553C82.2182 101.553 91.176 110.978 92.3704 108.622C93.5648 106.266 72.6631 88.5931 59.5249 59.1424C59.5249 59.1424 64.8996 63.2657 70.2743 58.5534M61.3164 55.6082C74.4547 57.9644 76.2462 51.4849 76.2462 51.4849M63.7052 50.8959C63.7052 50.8959 78.0378 52.663 81.621 44.4164M66.094 46.1835C66.094 46.1835 84.6069 45.0055 86.9957 34.9918M66.6912 41.4712C66.6912 41.4712 89.9817 36.1698 91.7732 24.389" stroke="#5F6750" stroke-width="2"/>
<path d="M100.613 80.2516V78.7806C102.394 78.729 103.787 78.3935 104.794 77.7742C105.826 77.1806 106.548 76.2 106.961 74.8323C107.4 73.4903 107.619 71.6452 107.619 69.2968V48.4323C107.619 47.5032 107.503 46.8194 107.271 46.3806C107.039 45.9161 106.561 45.5935 105.839 45.4129C105.116 45.2323 104.032 45.129 102.587 45.1032V43.5935C103.852 43.671 106.097 43.7097 109.323 43.7097C112.316 43.7097 114.484 43.671 115.826 43.5935V45.1032C114.484 45.129 113.49 45.2323 112.845 45.4129C112.2 45.5935 111.761 45.9161 111.529 46.3806C111.323 46.8194 111.219 47.5032 111.219 48.4323V67.7097C111.219 70.7548 110.871 73.1935 110.174 75.0258C109.503 76.8839 108.394 78.2129 106.845 79.0129C105.297 79.8387 103.219 80.2516 100.613 80.2516ZM122.663 71.5419C120.908 71.5419 119.515 71.0903 118.483 70.1871C117.45 69.2581 116.934 68.0065 116.934 66.4323C116.934 65.2452 117.218 64.2774 117.786 63.529C118.379 62.7806 119.128 62.1871 120.031 61.7484C120.96 61.2839 121.941 60.9097 122.973 60.6258C124.005 60.3419 124.973 60.0839 125.876 59.8516C126.805 59.5935 127.554 59.2968 128.121 58.9613C128.715 58.6258 129.012 58.1742 129.012 57.6065V55.7871C129.012 54.5484 128.637 53.6194 127.889 53C127.166 52.3806 126.083 52.071 124.637 52.071C123.579 52.071 122.689 52.2129 121.966 52.4968C121.244 52.7806 120.883 53.1419 120.883 53.5806C120.883 53.8129 120.96 54.071 121.115 54.3548C121.296 54.6129 121.463 54.9097 121.618 55.2452C121.799 55.5548 121.889 55.8903 121.889 56.2516C121.889 56.7419 121.708 57.1419 121.347 57.4516C121.012 57.7613 120.56 57.9161 119.992 57.9161C119.296 57.9161 118.728 57.6968 118.289 57.2581C117.876 56.7935 117.67 56.1871 117.67 55.4387C117.67 54.5097 118.031 53.6839 118.754 52.9613C119.476 52.2129 120.444 51.6194 121.657 51.1806C122.87 50.7419 124.237 50.5226 125.76 50.5226C127.334 50.5226 128.612 50.7677 129.592 51.2581C130.599 51.7484 131.334 52.5097 131.799 53.5419C132.263 54.5742 132.496 55.9032 132.496 57.529V67.7871C132.496 68.4065 132.599 68.871 132.805 69.1806C133.037 69.4645 133.373 69.6065 133.812 69.6065C134.276 69.6065 134.728 69.4903 135.166 69.2581C135.631 69.0258 136.07 68.7548 136.483 68.4452L137.218 69.6839C136.547 70.2774 135.85 70.729 135.128 71.0387C134.431 71.3742 133.605 71.5419 132.65 71.5419C130.225 71.5419 129.012 70.3935 129.012 68.0968C128.263 69.2323 127.347 70.0968 126.263 70.6903C125.205 71.2581 124.005 71.5419 122.663 71.5419ZM123.979 69.2581C124.96 69.2581 125.876 69.0129 126.728 68.5226C127.605 68.0323 128.366 67.3355 129.012 66.4323V59.6194C128.754 60.0323 128.289 60.3806 127.618 60.6645C126.973 60.9226 126.25 61.1935 125.45 61.4774C124.65 61.7355 123.876 62.0452 123.128 62.4065C122.405 62.7677 121.799 63.2323 121.308 63.8C120.818 64.3677 120.573 65.1161 120.573 66.0452C120.573 67.0516 120.87 67.8387 121.463 68.4065C122.083 68.9742 122.921 69.2581 123.979 69.2581ZM151.501 71V69.4903C152.662 69.4645 153.45 69.2581 153.862 68.871C154.301 68.4581 154.52 67.7355 154.52 66.7032V57.7226C154.52 55.9935 154.185 54.6903 153.514 53.8129C152.843 52.9355 151.837 52.4968 150.495 52.4968C149.411 52.4968 148.391 52.8065 147.437 53.4258C146.508 54.0194 145.682 54.8968 144.959 56.0581L144.998 54.3548C145.643 53.1677 146.559 52.2387 147.746 51.5677C148.959 50.871 150.288 50.5226 151.733 50.5226C153.746 50.5226 155.295 51.1677 156.379 52.4581C157.462 53.7226 158.004 55.5419 158.004 57.9161V66.7032C158.004 67.7355 158.327 68.4581 158.972 68.871C159.617 69.2581 160.779 69.4645 162.456 69.4903V71C162.069 70.9742 161.527 70.9613 160.83 70.9613C160.159 70.9355 159.424 70.9097 158.624 70.8839C157.824 70.8581 157.05 70.8452 156.301 70.8452C155.372 70.8452 154.456 70.871 153.553 70.9226C152.65 70.9484 151.966 70.9742 151.501 71ZM137.256 71V69.4903C138.933 69.4645 140.095 69.2581 140.74 68.871C141.385 68.4581 141.708 67.7355 141.708 66.7032V55.9806C141.708 54.7677 141.372 53.9161 140.701 53.4258C140.03 52.9097 138.882 52.6258 137.256 52.5742V51.0645C137.772 51.0903 138.301 51.1161 138.843 51.1419C139.385 51.1677 139.953 51.1806 140.546 51.1806C141.398 51.1806 142.211 51.1419 142.985 51.0645C143.759 50.9613 144.495 50.8194 145.191 50.6387V66.7032C145.191 67.7355 145.411 68.4581 145.85 68.871C146.288 69.2581 147.075 69.4645 148.211 69.4903V71C147.617 70.9742 146.895 70.9484 146.043 70.9226C145.191 70.871 144.301 70.8452 143.372 70.8452C142.314 70.8452 141.217 70.871 140.082 70.9226C138.972 70.9484 138.03 70.9742 137.256 71ZM162.898 71V69.4903C164.55 69.4645 165.698 69.2581 166.344 68.871C167.015 68.4839 167.35 67.7613 167.35 66.7032V55.9806C167.35 54.7935 167.028 53.9419 166.382 53.4258C165.737 52.9097 164.576 52.6258 162.898 52.5742V51.0645C163.415 51.0903 163.944 51.1161 164.486 51.1419C165.053 51.1677 165.621 51.1806 166.189 51.1806C167.066 51.1806 167.892 51.1419 168.666 51.0645C169.466 50.9613 170.189 50.8194 170.834 50.6387V66.7032C170.834 67.7613 171.157 68.4839 171.802 68.871C172.473 69.2581 173.634 69.4645 175.286 69.4903V71C174.898 70.9742 174.357 70.9613 173.66 70.9613C172.989 70.9355 172.253 70.9097 171.453 70.8839C170.653 70.8581 169.853 70.8452 169.053 70.8452C167.892 70.8452 166.718 70.871 165.531 70.9226C164.369 70.9484 163.492 70.9742 162.898 71ZM168.976 46.4194C168.279 46.4194 167.673 46.1742 167.157 45.6839C166.666 45.1677 166.421 44.5613 166.421 43.8645C166.421 43.1677 166.666 42.5742 167.157 42.0839C167.673 41.5677 168.279 41.3097 168.976 41.3097C169.673 41.3097 170.266 41.5677 170.757 42.0839C171.247 42.5742 171.492 43.1677 171.492 43.8645C171.492 44.5613 171.247 45.1677 170.757 45.6839C170.266 46.1742 169.673 46.4194 168.976 46.4194ZM190.13 71V69.4903C191.291 69.4645 192.078 69.2581 192.491 68.871C192.93 68.4581 193.149 67.7355 193.149 66.7032V57.7226C193.149 55.9935 192.814 54.6903 192.143 53.8129C191.472 52.9355 190.465 52.4968 189.123 52.4968C188.04 52.4968 187.02 52.8065 186.065 53.4258C185.136 54.0194 184.311 54.8968 183.588 56.0581L183.627 54.3548C184.272 53.1677 185.188 52.2387 186.375 51.5677C187.588 50.871 188.917 50.5226 190.362 50.5226C192.375 50.5226 193.923 51.1677 195.007 52.4581C196.091 53.7226 196.633 55.5419 196.633 57.9161V66.7032C196.633 67.7355 196.956 68.4581 197.601 68.871C198.246 69.2581 199.407 69.4645 201.085 69.4903V71C200.698 70.9742 200.156 70.9613 199.459 70.9613C198.788 70.9355 198.052 70.9097 197.252 70.8839C196.452 70.8581 195.678 70.8452 194.93 70.8452C194.001 70.8452 193.085 70.871 192.181 70.9226C191.278 70.9484 190.594 70.9742 190.13 71ZM175.885 71V69.4903C177.562 69.4645 178.723 69.2581 179.369 68.871C180.014 68.4581 180.336 67.7355 180.336 66.7032V55.9806C180.336 54.7677 180.001 53.9161 179.33 53.4258C178.659 52.9097 177.511 52.6258 175.885 52.5742V51.0645C176.401 51.0903 176.93 51.1161 177.472 51.1419C178.014 51.1677 178.581 51.1806 179.175 51.1806C180.027 51.1806 180.84 51.1419 181.614 51.0645C182.388 50.9613 183.123 50.8194 183.82 50.6387V66.7032C183.82 67.7355 184.04 68.4581 184.478 68.871C184.917 69.2581 185.704 69.4645 186.84 69.4903V71C186.246 70.9742 185.523 70.9484 184.672 70.9226C183.82 70.871 182.93 70.8452 182.001 70.8452C180.943 70.8452 179.846 70.871 178.711 70.9226C177.601 70.9484 176.659 70.9742 175.885 71ZM211.728 71.5419C209.87 71.5419 208.257 71.129 206.889 70.3032C205.522 69.4516 204.464 68.2387 203.715 66.6645C202.967 65.0903 202.593 63.2323 202.593 61.0903C202.593 58.9484 202.967 57.0903 203.715 55.5161C204.464 53.9161 205.535 52.6903 206.928 51.8387C208.347 50.9613 210.025 50.5226 211.96 50.5226C213.612 50.5226 215.044 50.8581 216.257 51.529C217.496 52.1742 218.438 53.1935 219.083 54.5871C219.754 55.9806 220.064 57.7871 220.012 60.0065H204.877L204.838 58.5355H216.296C216.347 57.2968 216.206 56.1871 215.87 55.2065C215.56 54.2258 215.057 53.4516 214.36 52.8839C213.689 52.2903 212.825 51.9935 211.767 51.9935C210.425 51.9935 209.238 52.5613 208.206 53.6968C207.173 54.8065 206.567 56.5355 206.386 58.8839L206.425 59C206.399 59.2839 206.373 59.5806 206.347 59.8903C206.347 60.2 206.347 60.5226 206.347 60.8581C206.347 63.6194 206.889 65.7484 207.973 67.2452C209.057 68.7419 210.606 69.4903 212.618 69.4903C213.909 69.4903 215.07 69.1677 216.102 68.5226C217.135 67.8774 217.973 66.8839 218.618 65.5419L220.012 66.3548C219.341 67.9548 218.283 69.2194 216.838 70.1484C215.393 71.0774 213.689 71.5419 211.728 71.5419ZM244.291 71.5419C241.839 71.5419 239.697 70.9742 237.865 69.8387C236.058 68.6774 234.652 67.0645 233.645 65C232.665 62.9097 232.175 60.471 232.175 57.6839C232.175 54.7935 232.704 52.2516 233.762 50.0581C234.82 47.8645 236.278 46.1484 238.136 44.9097C239.994 43.671 242.149 43.0516 244.6 43.0516C245.736 43.0516 246.742 43.1806 247.62 43.4387C248.497 43.671 249.245 43.9677 249.865 44.329C250.51 44.6645 251.065 44.9613 251.529 45.2194C252.02 45.4516 252.458 45.5677 252.845 45.5677C253.207 45.5677 253.491 45.3871 253.697 45.0258C253.904 44.6645 254.058 44.071 254.162 43.2452H255.71C255.684 43.9161 255.658 44.6774 255.633 45.529C255.607 46.3548 255.581 47.3871 255.555 48.6258C255.555 49.8645 255.555 51.4258 255.555 53.3097H254.007C253.697 51.5032 253.116 49.9548 252.265 48.6645C251.413 47.3484 250.355 46.329 249.091 45.6065C247.852 44.8839 246.445 44.5226 244.871 44.5226C242.11 44.5226 239.942 45.6452 238.368 47.8903C236.82 50.1355 236.045 53.2452 236.045 57.2194C236.045 61.2194 236.833 64.3677 238.407 66.6645C239.981 68.9355 242.136 70.071 244.871 70.071C246.471 70.071 247.904 69.7097 249.168 68.9871C250.433 68.2387 251.491 67.2065 252.342 65.8903C253.194 64.5742 253.749 63.0387 254.007 61.2839H255.555C255.555 63.0903 255.555 64.6129 255.555 65.8516C255.581 67.0645 255.607 68.1097 255.633 68.9871C255.658 69.8645 255.684 70.6516 255.71 71.3484H254.162C254.058 70.4968 253.904 69.9032 253.697 69.5677C253.516 69.2323 253.233 69.0645 252.845 69.0645C252.433 69.0645 251.981 69.1935 251.491 69.4516C251 69.6839 250.42 69.9677 249.749 70.3032C249.104 70.6387 248.329 70.9226 247.426 71.1548C246.549 71.4129 245.504 71.5419 244.291 71.5419ZM268.935 71.5419C267.206 71.5419 265.632 71.1806 264.213 70.4581C262.819 69.7097 261.71 68.5742 260.884 67.0516C260.058 65.5032 259.645 63.5032 259.645 61.0516C259.645 58.6 260.058 56.6 260.884 55.0516C261.71 53.5032 262.819 52.3677 264.213 51.6452C265.632 50.8968 267.206 50.5226 268.935 50.5226C270.69 50.5226 272.264 50.8968 273.658 51.6452C275.052 52.3677 276.161 53.5032 276.987 55.0516C277.813 56.6 278.226 58.6 278.226 61.0516C278.226 63.5032 277.813 65.5032 276.987 67.0516C276.161 68.5742 275.052 69.7097 273.658 70.4581C272.264 71.1806 270.69 71.5419 268.935 71.5419ZM268.935 70.0323C270.561 70.0323 271.89 69.3226 272.923 67.9032C273.955 66.4839 274.471 64.2 274.471 61.0516C274.471 57.9032 273.955 55.6194 272.923 54.2C271.89 52.7548 270.561 52.0323 268.935 52.0323C267.31 52.0323 265.981 52.7548 264.948 54.2C263.916 55.6194 263.4 57.9032 263.4 61.0516C263.4 64.2 263.916 66.4839 264.948 67.9032C265.981 69.3226 267.31 70.0323 268.935 70.0323ZM290.908 71.5419C289.049 71.5419 287.437 71.129 286.069 70.3032C284.701 69.4516 283.643 68.2387 282.895 66.6645C282.146 65.0903 281.772 63.2323 281.772 61.0903C281.772 58.9484 282.146 57.0903 282.895 55.5161C283.643 53.9161 284.714 52.6903 286.108 51.8387C287.527 50.9613 289.204 50.5226 291.14 50.5226C292.791 50.5226 294.224 50.8581 295.437 51.529C296.675 52.1742 297.617 53.1935 298.262 54.5871C298.933 55.9806 299.243 57.7871 299.191 60.0065H284.056L284.017 58.5355H295.475C295.527 57.2968 295.385 56.1871 295.049 55.2065C294.74 54.2258 294.237 53.4516 293.54 52.8839C292.869 52.2903 292.004 51.9935 290.946 51.9935C289.604 51.9935 288.417 52.5613 287.385 53.6968C286.353 54.8065 285.746 56.5355 285.566 58.8839L285.604 59C285.578 59.2839 285.553 59.5806 285.527 59.8903C285.527 60.2 285.527 60.5226 285.527 60.8581C285.527 63.6194 286.069 65.7484 287.153 67.2452C288.237 68.7419 289.785 69.4903 291.798 69.4903C293.088 69.4903 294.249 69.1677 295.282 68.5226C296.314 67.8774 297.153 66.8839 297.798 65.5419L299.191 66.3548C298.52 67.9548 297.462 69.2194 296.017 70.1484C294.572 71.0774 292.869 71.5419 290.908 71.5419ZM300.696 71V69.4903C302.347 69.4645 303.496 69.2581 304.141 68.871C304.812 68.4839 305.147 67.7613 305.147 66.7032V45.9935C305.147 44.8065 304.812 43.9548 304.141 43.4387C303.496 42.9226 302.347 42.6387 300.696 42.5871V41.0774C301.212 41.1032 301.741 41.129 302.283 41.1548C302.851 41.1806 303.418 41.1935 303.986 41.1935C304.838 41.1935 305.663 41.1548 306.463 41.0774C307.263 40.9742 307.986 40.8323 308.631 40.6516V66.7032C308.631 67.7613 308.954 68.4839 309.599 68.871C310.27 69.2581 311.418 69.4645 313.044 69.4903V71C312.657 70.9742 312.128 70.9613 311.457 70.9613C310.786 70.9355 310.051 70.9097 309.251 70.8839C308.451 70.8581 307.651 70.8452 306.851 70.8452C305.689 70.8452 304.515 70.871 303.328 70.9226C302.167 70.9484 301.289 70.9742 300.696 71ZM327.693 71V69.4903C328.854 69.4645 329.641 69.2581 330.054 68.871C330.493 68.4581 330.712 67.7355 330.712 66.7032V57.7226C330.712 55.9935 330.377 54.6903 329.706 53.8129C329.035 52.9355 328.028 52.4968 326.686 52.4968C325.602 52.4968 324.583 52.8065 323.628 53.4258C322.673 54.0194 321.848 54.8968 321.151 56.0581L321.189 54.3548C321.835 53.1677 322.751 52.2387 323.938 51.5677C325.151 50.871 326.48 50.5226 327.925 50.5226C329.938 50.5226 331.486 51.1677 332.57 52.4581C333.654 53.7226 334.196 55.5419 334.196 57.9161V66.7032C334.196 67.7355 334.519 68.4581 335.164 68.871C335.809 69.2581 336.97 69.4645 338.648 69.4903V71C338.26 70.9742 337.719 70.9613 337.022 70.9613C336.351 70.9355 335.615 70.9097 334.815 70.8839C334.015 70.8581 333.241 70.8452 332.493 70.8452C331.564 70.8452 330.648 70.871 329.744 70.9226C328.841 70.9484 328.157 70.9742 327.693 71ZM313.448 71V69.4903C315.125 69.4645 316.286 69.2581 316.931 68.871C317.577 68.4581 317.899 67.7355 317.899 66.7032V46.0323C317.899 44.7935 317.564 43.929 316.893 43.4387C316.248 42.9226 315.099 42.6516 313.448 42.6258V41.0774C313.964 41.1032 314.493 41.129 315.035 41.1548C315.602 41.1806 316.17 41.1935 316.738 41.1935C317.589 41.1935 318.402 41.1548 319.177 41.0774C319.951 40.9742 320.686 40.8323 321.383 40.6516V66.7032C321.383 67.7355 321.589 68.4581 322.002 68.871C322.441 69.2581 323.241 69.4645 324.402 69.4903V71C323.886 70.9742 323.177 70.9484 322.273 70.9226C321.396 70.871 320.493 70.8452 319.564 70.8452C318.506 70.8452 317.396 70.871 316.235 70.9226C315.099 70.9484 314.17 70.9742 313.448 71ZM349.427 71.5419C347.698 71.5419 346.124 71.1806 344.705 70.4581C343.311 69.7097 342.202 68.5742 341.376 67.0516C340.55 65.5032 340.137 63.5032 340.137 61.0516C340.137 58.6 340.55 56.6 341.376 55.0516C342.202 53.5032 343.311 52.3677 344.705 51.6452C346.124 50.8968 347.698 50.5226 349.427 50.5226C351.182 50.5226 352.756 50.8968 354.15 51.6452C355.543 52.3677 356.653 53.5032 357.479 55.0516C358.305 56.6 358.718 58.6 358.718 61.0516C358.718 63.5032 358.305 65.5032 357.479 67.0516C356.653 68.5742 355.543 69.7097 354.15 70.4581C352.756 71.1806 351.182 71.5419 349.427 71.5419ZM349.427 70.0323C351.053 70.0323 352.382 69.3226 353.414 67.9032C354.447 66.4839 354.963 64.2 354.963 61.0516C354.963 57.9032 354.447 55.6194 353.414 54.2C352.382 52.7548 351.053 52.0323 349.427 52.0323C347.802 52.0323 346.473 52.7548 345.44 54.2C344.408 55.6194 343.892 57.9032 343.892 61.0516C343.892 64.2 344.408 66.4839 345.44 67.9032C346.473 69.3226 347.802 70.0323 349.427 70.0323ZM382.866 71.5419C380.415 71.5419 378.273 70.9742 376.44 69.8387C374.634 68.6774 373.228 67.0645 372.221 65C371.24 62.9097 370.75 60.471 370.75 57.6839C370.75 54.7935 371.279 52.2516 372.337 50.0581C373.395 47.8645 374.853 46.1484 376.711 44.9097C378.569 43.671 380.724 43.0516 383.176 43.0516C384.311 43.0516 385.318 43.1806 386.195 43.4387C387.073 43.671 387.821 43.9677 388.44 44.329C389.086 44.6645 389.64 44.9613 390.105 45.2194C390.595 45.4516 391.034 45.5677 391.421 45.5677C391.782 45.5677 392.066 45.3871 392.273 45.0258C392.479 44.6645 392.634 44.071 392.737 43.2452H394.286C394.26 43.9161 394.234 44.6774 394.208 45.529C394.182 46.3548 394.157 47.3871 394.131 48.6258C394.131 49.8645 394.131 51.4258 394.131 53.3097H392.582C392.273 51.5032 391.692 49.9548 390.84 48.6645C389.989 47.3484 388.931 46.329 387.666 45.6065C386.428 44.8839 385.021 44.5226 383.447 44.5226C380.686 44.5226 378.518 45.6452 376.944 47.8903C375.395 50.1355 374.621 53.2452 374.621 57.2194C374.621 61.2194 375.408 64.3677 376.982 66.6645C378.557 68.9355 380.711 70.071 383.447 70.071C385.047 70.071 386.479 69.7097 387.744 68.9871C389.008 68.2387 390.066 67.2065 390.918 65.8903C391.769 64.5742 392.324 63.0387 392.582 61.2839H394.131C394.131 63.0903 394.131 64.6129 394.131 65.8516C394.157 67.0645 394.182 68.1097 394.208 68.9871C394.234 69.8645 394.26 70.6516 394.286 71.3484H392.737C392.634 70.4968 392.479 69.9032 392.273 69.5677C392.092 69.2323 391.808 69.0645 391.421 69.0645C391.008 69.0645 390.557 69.1935 390.066 69.4516C389.576 69.6839 388.995 69.9677 388.324 70.3032C387.679 70.6387 386.905 70.9226 386.002 71.1548C385.124 71.4129 384.079 71.5419 382.866 71.5419ZM407.511 71.5419C405.782 71.5419 404.208 71.1806 402.789 70.4581C401.395 69.7097 400.285 68.5742 399.459 67.0516C398.634 65.5032 398.221 63.5032 398.221 61.0516C398.221 58.6 398.634 56.6 399.459 55.0516C400.285 53.5032 401.395 52.3677 402.789 51.6452C404.208 50.8968 405.782 50.5226 407.511 50.5226C409.266 50.5226 410.84 50.8968 412.234 51.6452C413.627 52.3677 414.737 53.5032 415.563 55.0516C416.389 56.6 416.801 58.6 416.801 61.0516C416.801 63.5032 416.389 65.5032 415.563 67.0516C414.737 68.5742 413.627 69.7097 412.234 70.4581C410.84 71.1806 409.266 71.5419 407.511 71.5419ZM407.511 70.0323C409.137 70.0323 410.466 69.3226 411.498 67.9032C412.53 66.4839 413.047 64.2 413.047 61.0516C413.047 57.9032 412.53 55.6194 411.498 54.2C410.466 52.7548 409.137 52.0323 407.511 52.0323C405.885 52.0323 404.556 52.7548 403.524 54.2C402.492 55.6194 401.976 57.9032 401.976 61.0516C401.976 64.2 402.492 66.4839 403.524 67.9032C404.556 69.3226 405.885 70.0323 407.511 70.0323ZM419.048 71V69.4903C420.725 69.4645 421.887 69.2581 422.532 68.871C423.177 68.4581 423.499 67.7355 423.499 66.7032V55.9806C423.499 54.7677 423.164 53.9161 422.493 53.4258C421.822 52.9097 420.674 52.6258 419.048 52.5742V51.0645C419.564 51.0903 420.093 51.1161 420.635 51.1419C421.177 51.1677 421.745 51.1806 422.338 51.1806C423.99 51.1806 425.538 51 426.983 50.6387V66.5097C426.983 67.5935 427.383 68.3548 428.183 68.7935C429.009 69.2323 430.428 69.4645 432.441 69.4903V71C431.977 70.9742 431.345 70.9613 430.545 70.9613C429.77 70.9355 428.919 70.9097 427.99 70.8839C427.087 70.8581 426.183 70.8452 425.28 70.8452C424.041 70.8452 422.841 70.871 421.68 70.9226C420.519 70.9484 419.641 70.9742 419.048 71ZM434.416 57.1806C433.899 57.1806 433.461 57.0258 433.099 56.7161C432.764 56.4065 432.596 56.0194 432.596 55.5548C432.596 55.1935 432.661 54.8839 432.79 54.6258C432.945 54.3677 433.087 54.1226 433.216 53.8903C433.345 53.6581 433.409 53.4258 433.409 53.1935C433.409 52.6516 433.009 52.3806 432.209 52.3806C431.564 52.3806 430.88 52.5484 430.158 52.8839C429.435 53.2194 428.777 53.6581 428.183 54.2C427.59 54.7419 427.151 55.3484 426.867 56.0194L426.751 54.3935C427.474 53.1548 428.377 52.2 429.461 51.529C430.57 50.8581 431.732 50.5226 432.945 50.5226C434.158 50.5226 435.112 50.871 435.809 51.5677C436.532 52.2387 436.893 53.129 436.893 54.2387C436.893 55.1161 436.661 55.8258 436.196 56.3677C435.758 56.9097 435.164 57.1806 434.416 57.1806ZM437.847 71V69.4903C439.524 69.4645 440.685 69.2581 441.33 68.871C441.976 68.4581 442.298 67.7355 442.298 66.7032V55.9806C442.298 54.7677 441.963 53.9161 441.292 53.4258C440.621 52.9097 439.472 52.6258 437.847 52.5742V51.0645C438.363 51.0903 438.892 51.1161 439.434 51.1419C439.976 51.1677 440.543 51.1806 441.137 51.1806C442.789 51.1806 444.337 51 445.782 50.6387V66.5097C445.782 67.5935 446.182 68.3548 446.982 68.7935C447.808 69.2323 449.227 69.4645 451.24 69.4903V71C450.776 70.9742 450.143 70.9613 449.343 70.9613C448.569 70.9355 447.718 70.9097 446.789 70.8839C445.885 70.8581 444.982 70.8452 444.079 70.8452C442.84 70.8452 441.64 70.871 440.479 70.9226C439.318 70.9484 438.44 70.9742 437.847 71ZM453.214 57.1806C452.698 57.1806 452.26 57.0258 451.898 56.7161C451.563 56.4065 451.395 56.0194 451.395 55.5548C451.395 55.1935 451.46 54.8839 451.589 54.6258C451.743 54.3677 451.885 54.1226 452.014 53.8903C452.143 53.6581 452.208 53.4258 452.208 53.1935C452.208 52.6516 451.808 52.3806 451.008 52.3806C450.363 52.3806 449.679 52.5484 448.956 52.8839C448.234 53.2194 447.576 53.6581 446.982 54.2C446.389 54.7419 445.95 55.3484 445.666 56.0194L445.55 54.3935C446.272 53.1548 447.176 52.2 448.26 51.529C449.369 50.8581 450.53 50.5226 451.743 50.5226C452.956 50.5226 453.911 50.871 454.608 51.5677C455.33 52.2387 455.692 53.129 455.692 54.2387C455.692 55.1161 455.46 55.8258 454.995 56.3677C454.556 56.9097 453.963 57.1806 453.214 57.1806ZM466.284 71.5419C464.426 71.5419 462.813 71.129 461.445 70.3032C460.077 69.4516 459.019 68.2387 458.271 66.6645C457.522 65.0903 457.148 63.2323 457.148 61.0903C457.148 58.9484 457.522 57.0903 458.271 55.5161C459.019 53.9161 460.09 52.6903 461.484 51.8387C462.903 50.9613 464.581 50.5226 466.516 50.5226C468.168 50.5226 469.6 50.8581 470.813 51.529C472.051 52.1742 472.993 53.1935 473.639 54.5871C474.31 55.9806 474.619 57.7871 474.568 60.0065H459.432L459.393 58.5355H470.851C470.903 57.2968 470.761 56.1871 470.426 55.2065C470.116 54.2258 469.613 53.4516 468.916 52.8839C468.245 52.2903 467.381 51.9935 466.322 51.9935C464.981 51.9935 463.793 52.5613 462.761 53.6968C461.729 54.8065 461.122 56.5355 460.942 58.8839L460.981 59C460.955 59.2839 460.929 59.5806 460.903 59.8903C460.903 60.2 460.903 60.5226 460.903 60.8581C460.903 63.6194 461.445 65.7484 462.529 67.2452C463.613 68.7419 465.161 69.4903 467.174 69.4903C468.464 69.4903 469.626 69.1677 470.658 68.5226C471.69 67.8774 472.529 66.8839 473.174 65.5419L474.568 66.3548C473.897 67.9548 472.839 69.2194 471.393 70.1484C469.948 71.0774 468.245 71.5419 466.284 71.5419ZM483.775 71.5419C482.02 71.5419 480.627 71.0903 479.594 70.1871C478.562 69.2581 478.046 68.0065 478.046 66.4323C478.046 65.2452 478.33 64.2774 478.898 63.529C479.491 62.7806 480.24 62.1871 481.143 61.7484C482.072 61.2839 483.053 60.9097 484.085 60.6258C485.117 60.3419 486.085 60.0839 486.988 59.8516C487.917 59.5935 488.665 59.2968 489.233 58.9613C489.827 58.6258 490.124 58.1742 490.124 57.6065V55.7871C490.124 54.5484 489.749 53.6194 489.001 53C488.278 52.3806 487.194 52.071 485.749 52.071C484.691 52.071 483.801 52.2129 483.078 52.4968C482.356 52.7806 481.994 53.1419 481.994 53.5806C481.994 53.8129 482.072 54.071 482.227 54.3548C482.407 54.6129 482.575 54.9097 482.73 55.2452C482.911 55.5548 483.001 55.8903 483.001 56.2516C483.001 56.7419 482.82 57.1419 482.459 57.4516C482.124 57.7613 481.672 57.9161 481.104 57.9161C480.407 57.9161 479.84 57.6968 479.401 57.2581C478.988 56.7935 478.782 56.1871 478.782 55.4387C478.782 54.5097 479.143 53.6839 479.865 52.9613C480.588 52.2129 481.556 51.6194 482.769 51.1806C483.982 50.7419 485.349 50.5226 486.872 50.5226C488.446 50.5226 489.724 50.7677 490.704 51.2581C491.711 51.7484 492.446 52.5097 492.911 53.5419C493.375 54.5742 493.607 55.9032 493.607 57.529V67.7871C493.607 68.4065 493.711 68.871 493.917 69.1806C494.149 69.4645 494.485 69.6065 494.924 69.6065C495.388 69.6065 495.84 69.4903 496.278 69.2581C496.743 69.0258 497.182 68.7548 497.594 68.4452L498.33 69.6839C497.659 70.2774 496.962 70.729 496.24 71.0387C495.543 71.3742 494.717 71.5419 493.762 71.5419C491.336 71.5419 490.124 70.3935 490.124 68.0968C489.375 69.2323 488.459 70.0968 487.375 70.6903C486.317 71.2581 485.117 71.5419 483.775 71.5419ZM485.091 69.2581C486.072 69.2581 486.988 69.0129 487.84 68.5226C488.717 68.0323 489.478 67.3355 490.124 66.4323V59.6194C489.865 60.0323 489.401 60.3806 488.73 60.6645C488.085 60.9226 487.362 61.1935 486.562 61.4774C485.762 61.7355 484.988 62.0452 484.24 62.4065C483.517 62.7677 482.911 63.2323 482.42 63.8C481.93 64.3677 481.685 65.1161 481.685 66.0452C481.685 67.0516 481.982 67.8387 482.575 68.4065C483.194 68.9742 484.033 69.2581 485.091 69.2581Z" fill="#5F6750"/>
<path d="M109.976 27.192C109.976 27.7573 109.843 28.2907 109.576 28.792C109.309 29.2933 108.883 29.704 108.296 30.024C107.709 30.3333 106.957 30.488 106.04 30.488H104.024V35H102.2V23.88H106.04C106.893 23.88 107.613 24.0293 108.2 24.328C108.797 24.616 109.24 25.0107 109.528 25.512C109.827 26.0133 109.976 26.5733 109.976 27.192ZM106.04 29C106.733 29 107.251 28.8453 107.592 28.536C107.933 28.216 108.104 27.768 108.104 27.192C108.104 25.976 107.416 25.368 106.04 25.368H104.024V29H106.04ZM114.276 35.144C113.582 35.144 112.958 35.0213 112.404 34.776C111.86 34.52 111.428 34.1787 111.108 33.752C110.788 33.3147 110.617 32.8293 110.596 32.296H112.484C112.516 32.6693 112.692 32.984 113.012 33.24C113.342 33.4853 113.753 33.608 114.244 33.608C114.756 33.608 115.15 33.512 115.428 33.32C115.716 33.1173 115.86 32.8613 115.86 32.552C115.86 32.2213 115.7 31.976 115.38 31.816C115.07 31.656 114.574 31.48 113.892 31.288C113.23 31.1067 112.692 30.9307 112.276 30.76C111.86 30.5893 111.497 30.328 111.188 29.976C110.889 29.624 110.74 29.16 110.74 28.584C110.74 28.1147 110.878 27.688 111.156 27.304C111.433 26.9093 111.828 26.6 112.34 26.376C112.862 26.152 113.46 26.04 114.132 26.04C115.134 26.04 115.94 26.296 116.548 26.808C117.166 27.3093 117.497 27.9973 117.54 28.872H115.716C115.684 28.4773 115.524 28.1627 115.236 27.928C114.948 27.6933 114.558 27.576 114.068 27.576C113.588 27.576 113.22 27.6667 112.964 27.848C112.708 28.0293 112.58 28.2693 112.58 28.568C112.58 28.8027 112.665 29 112.836 29.16C113.006 29.32 113.214 29.448 113.46 29.544C113.705 29.6293 114.068 29.7413 114.548 29.88C115.188 30.0507 115.71 30.2267 116.116 30.408C116.532 30.5787 116.889 30.8347 117.188 31.176C117.486 31.5173 117.641 31.9707 117.652 32.536C117.652 33.0373 117.513 33.4853 117.236 33.88C116.958 34.2747 116.564 34.584 116.052 34.808C115.55 35.032 114.958 35.144 114.276 35.144ZM119.91 25.016C119.58 25.016 119.302 24.904 119.078 24.68C118.854 24.456 118.742 24.1787 118.742 23.848C118.742 23.5173 118.854 23.24 119.078 23.016C119.302 22.792 119.58 22.68 119.91 22.68C120.23 22.68 120.502 22.792 120.726 23.016C120.95 23.24 121.062 23.5173 121.062 23.848C121.062 24.1787 120.95 24.456 120.726 24.68C120.502 24.904 120.23 25.016 119.91 25.016ZM120.806 26.184V35H118.982V26.184H120.806ZM121.953 30.584C121.953 29.6773 122.135 28.8827 122.497 28.2C122.871 27.5067 123.383 26.9733 124.033 26.6C124.684 26.2267 125.431 26.04 126.273 26.04C127.34 26.04 128.22 26.296 128.913 26.808C129.617 27.3093 130.092 28.0293 130.337 28.968H128.369C128.209 28.5307 127.953 28.1893 127.601 27.944C127.249 27.6987 126.807 27.576 126.273 27.576C125.527 27.576 124.929 27.8427 124.481 28.376C124.044 28.8987 123.825 29.6347 123.825 30.584C123.825 31.5333 124.044 32.2747 124.481 32.808C124.929 33.3413 125.527 33.608 126.273 33.608C127.329 33.608 128.028 33.144 128.369 32.216H130.337C130.081 33.112 129.601 33.8267 128.897 34.36C128.193 34.8827 127.319 35.144 126.273 35.144C125.431 35.144 124.684 34.9573 124.033 34.584C123.383 34.2 122.871 33.6667 122.497 32.984C122.135 32.2907 121.953 31.4907 121.953 30.584ZM135.339 35.144C134.507 35.144 133.755 34.9573 133.083 34.584C132.411 34.2 131.883 33.6667 131.499 32.984C131.115 32.2907 130.923 31.4907 130.923 30.584C130.923 29.688 131.12 28.8933 131.515 28.2C131.91 27.5067 132.448 26.9733 133.131 26.6C133.814 26.2267 134.576 26.04 135.419 26.04C136.262 26.04 137.024 26.2267 137.707 26.6C138.39 26.9733 138.928 27.5067 139.323 28.2C139.718 28.8933 139.915 29.688 139.915 30.584C139.915 31.48 139.712 32.2747 139.307 32.968C138.902 33.6613 138.347 34.2 137.643 34.584C136.95 34.9573 136.182 35.144 135.339 35.144ZM135.339 33.56C135.808 33.56 136.246 33.448 136.651 33.224C137.067 33 137.403 32.664 137.659 32.216C137.915 31.768 138.043 31.224 138.043 30.584C138.043 29.944 137.92 29.4053 137.675 28.968C137.43 28.52 137.104 28.184 136.699 27.96C136.294 27.736 135.856 27.624 135.387 27.624C134.918 27.624 134.48 27.736 134.075 27.96C133.68 28.184 133.366 28.52 133.131 28.968C132.896 29.4053 132.779 29.944 132.779 30.584C132.779 31.5333 133.019 32.2693 133.499 32.792C133.99 33.304 134.603 33.56 135.339 33.56ZM137.067 23.672L133.531 25.416V24.072L137.067 22.12V23.672ZM142.902 23.16V35H141.078V23.16H142.902ZM148.481 35.144C147.649 35.144 146.897 34.9573 146.225 34.584C145.553 34.2 145.025 33.6667 144.641 32.984C144.257 32.2907 144.065 31.4907 144.065 30.584C144.065 29.688 144.262 28.8933 144.657 28.2C145.052 27.5067 145.59 26.9733 146.273 26.6C146.956 26.2267 147.718 26.04 148.561 26.04C149.404 26.04 150.166 26.2267 150.849 26.6C151.532 26.9733 152.07 27.5067 152.465 28.2C152.86 28.8933 153.057 29.688 153.057 30.584C153.057 31.48 152.854 32.2747 152.449 32.968C152.044 33.6613 151.489 34.2 150.785 34.584C150.092 34.9573 149.324 35.144 148.481 35.144ZM148.481 33.56C148.95 33.56 149.388 33.448 149.793 33.224C150.209 33 150.545 32.664 150.801 32.216C151.057 31.768 151.185 31.224 151.185 30.584C151.185 29.944 151.062 29.4053 150.817 28.968C150.572 28.52 150.246 28.184 149.841 27.96C149.436 27.736 148.998 27.624 148.529 27.624C148.06 27.624 147.622 27.736 147.217 27.96C146.822 28.184 146.508 28.52 146.273 28.968C146.038 29.4053 145.921 29.944 145.921 30.584C145.921 31.5333 146.161 32.2693 146.641 32.792C147.132 33.304 147.745 33.56 148.481 33.56ZM157.772 26.04C158.455 26.04 159.057 26.1787 159.58 26.456C160.113 26.7227 160.529 27.0587 160.828 27.464V26.184H162.668V35.144C162.668 35.9547 162.497 36.6747 162.156 37.304C161.815 37.944 161.319 38.4453 160.668 38.808C160.028 39.1707 159.26 39.352 158.364 39.352C157.169 39.352 156.177 39.0693 155.388 38.504C154.599 37.9493 154.151 37.192 154.044 36.232H155.852C155.991 36.6907 156.284 37.0587 156.732 37.336C157.191 37.624 157.735 37.768 158.364 37.768C159.1 37.768 159.692 37.544 160.14 37.096C160.599 36.648 160.828 35.9973 160.828 35.144V33.672C160.519 34.088 160.097 34.44 159.564 34.728C159.041 35.0053 158.444 35.144 157.772 35.144C157.004 35.144 156.3 34.952 155.66 34.568C155.031 34.1733 154.529 33.6293 154.156 32.936C153.793 32.232 153.612 31.4373 153.612 30.552C153.612 29.6667 153.793 28.8827 154.156 28.2C154.529 27.5173 155.031 26.9893 155.66 26.616C156.3 26.232 157.004 26.04 157.772 26.04ZM160.828 30.584C160.828 29.976 160.7 29.448 160.444 29C160.199 28.552 159.873 28.2107 159.468 27.976C159.063 27.7413 158.625 27.624 158.156 27.624C157.687 27.624 157.249 27.7413 156.844 27.976C156.439 28.2 156.108 28.536 155.852 28.984C155.607 29.4213 155.484 29.944 155.484 30.552C155.484 31.16 155.607 31.6933 155.852 32.152C156.108 32.6107 156.439 32.9627 156.844 33.208C157.26 33.4427 157.697 33.56 158.156 33.56C158.625 33.56 159.063 33.4427 159.468 33.208C159.873 32.9733 160.199 32.632 160.444 32.184C160.7 31.7253 160.828 31.192 160.828 30.584ZM163.816 30.552C163.816 29.6667 163.997 28.8827 164.36 28.2C164.733 27.5173 165.234 26.9893 165.864 26.616C166.504 26.232 167.208 26.04 167.976 26.04C168.669 26.04 169.272 26.1787 169.784 26.456C170.306 26.7227 170.722 27.0587 171.032 27.464V26.184H172.872V35H171.032V33.688C170.722 34.104 170.301 34.4507 169.768 34.728C169.234 35.0053 168.626 35.144 167.944 35.144C167.186 35.144 166.493 34.952 165.864 34.568C165.234 34.1733 164.733 33.6293 164.36 32.936C163.997 32.232 163.816 31.4373 163.816 30.552ZM171.032 30.584C171.032 29.976 170.904 29.448 170.648 29C170.402 28.552 170.077 28.2107 169.672 27.976C169.266 27.7413 168.829 27.624 168.36 27.624C167.89 27.624 167.453 27.7413 167.048 27.976C166.642 28.2 166.312 28.536 166.056 28.984C165.81 29.4213 165.688 29.944 165.688 30.552C165.688 31.16 165.81 31.6933 166.056 32.152C166.312 32.6107 166.642 32.9627 167.048 33.208C167.464 33.4427 167.901 33.56 168.36 33.56C168.829 33.56 169.266 33.4427 169.672 33.208C170.077 32.9733 170.402 32.632 170.648 32.184C170.904 31.7253 171.032 31.192 171.032 30.584Z" fill="#5F6750"/>
<path d="M101.592 92.416C101.592 91.328 101.843 90.352 102.344 89.488C102.856 88.624 103.544 87.952 104.408 87.472C105.283 86.9813 106.237 86.736 107.272 86.736C108.456 86.736 109.507 87.0293 110.424 87.616C111.352 88.192 112.024 89.0133 112.44 90.08H110.248C109.96 89.4933 109.56 89.056 109.048 88.768C108.536 88.48 107.944 88.336 107.272 88.336C106.536 88.336 105.88 88.5013 105.304 88.832C104.728 89.1627 104.275 89.6373 103.944 90.256C103.624 90.8747 103.464 91.5947 103.464 92.416C103.464 93.2373 103.624 93.9573 103.944 94.576C104.275 95.1947 104.728 95.6747 105.304 96.016C105.88 96.3467 106.536 96.512 107.272 96.512C107.944 96.512 108.536 96.368 109.048 96.08C109.56 95.792 109.96 95.3547 110.248 94.768H112.44C112.024 95.8347 111.352 96.656 110.424 97.232C109.507 97.808 108.456 98.096 107.272 98.096C106.227 98.096 105.272 97.856 104.408 97.376C103.544 96.8853 102.856 96.208 102.344 95.344C101.843 94.48 101.592 93.504 101.592 92.416ZM119.711 98L117.151 93.552H115.759V98H113.935V86.88H117.775C118.628 86.88 119.348 87.0293 119.935 87.328C120.532 87.6267 120.975 88.0267 121.263 88.528C121.562 89.0293 121.711 89.5893 121.711 90.208C121.711 90.9333 121.498 91.5947 121.071 92.192C120.655 92.7787 120.01 93.1787 119.135 93.392L121.887 98H119.711ZM115.759 92.096H117.775C118.458 92.096 118.97 91.9253 119.311 91.584C119.663 91.2427 119.839 90.784 119.839 90.208C119.839 89.632 119.668 89.184 119.327 88.864C118.986 88.5333 118.468 88.368 117.775 88.368H115.759V92.096ZM131.18 90.192C131.18 90.7573 131.047 91.2907 130.78 91.792C130.514 92.2933 130.087 92.704 129.5 93.024C128.914 93.3333 128.162 93.488 127.244 93.488H125.228V98H123.404V86.88H127.244C128.098 86.88 128.818 87.0293 129.404 87.328C130.002 87.616 130.444 88.0107 130.732 88.512C131.031 89.0133 131.18 89.5733 131.18 90.192ZM127.244 92C127.938 92 128.455 91.8453 128.796 91.536C129.138 91.216 129.308 90.768 129.308 90.192C129.308 88.976 128.62 88.368 127.244 88.368H125.228V92H127.244ZM135.556 92.016C135.556 90.1707 135.866 88.7307 136.484 87.696C137.114 86.6507 138.191 86.128 139.716 86.128C141.242 86.128 142.314 86.6507 142.932 87.696C143.562 88.7307 143.876 90.1707 143.876 92.016C143.876 93.8827 143.562 95.344 142.932 96.4C142.314 97.4453 141.242 97.968 139.716 97.968C138.191 97.968 137.114 97.4453 136.484 96.4C135.866 95.344 135.556 93.8827 135.556 92.016ZM142.084 92.016C142.084 91.152 142.026 90.4213 141.908 89.824C141.802 89.2267 141.578 88.7413 141.236 88.368C140.895 87.984 140.388 87.792 139.716 87.792C139.044 87.792 138.538 87.984 138.196 88.368C137.855 88.7413 137.626 89.2267 137.508 89.824C137.402 90.4213 137.348 91.152 137.348 92.016C137.348 92.912 137.402 93.664 137.508 94.272C137.615 94.88 137.839 95.3707 138.18 95.744C138.532 96.1173 139.044 96.304 139.716 96.304C140.388 96.304 140.895 96.1173 141.236 95.744C141.588 95.3707 141.818 94.88 141.924 94.272C142.031 93.664 142.084 92.912 142.084 92.016ZM151.438 89.04C151.321 88.5493 151.108 88.1813 150.798 87.936C150.489 87.6907 150.057 87.568 149.502 87.568C148.66 87.568 148.03 87.8933 147.614 88.544C147.198 89.184 146.98 90.2507 146.958 91.744C147.236 91.2747 147.641 90.912 148.174 90.656C148.708 90.4 149.284 90.272 149.902 90.272C150.606 90.272 151.225 90.4267 151.758 90.736C152.302 91.0347 152.724 91.472 153.022 92.048C153.332 92.624 153.486 93.312 153.486 94.112C153.486 94.8587 153.337 95.5253 153.038 96.112C152.75 96.6987 152.318 97.1627 151.742 97.504C151.166 97.8347 150.473 98 149.662 98C148.564 98 147.7 97.76 147.07 97.28C146.452 96.7893 146.014 96.1013 145.758 95.216C145.513 94.3307 145.39 93.2267 145.39 91.904C145.39 88 146.766 86.048 149.518 86.048C150.585 86.048 151.422 86.336 152.03 86.912C152.649 87.488 153.012 88.1973 153.118 89.04H151.438ZM149.502 91.808C148.852 91.808 148.297 92.0053 147.838 92.4C147.39 92.784 147.166 93.344 147.166 94.08C147.166 94.816 147.374 95.4027 147.79 95.84C148.217 96.2667 148.809 96.48 149.566 96.48C150.238 96.48 150.766 96.272 151.15 95.856C151.545 95.44 151.742 94.8853 151.742 94.192C151.742 93.4667 151.55 92.8907 151.166 92.464C150.793 92.0267 150.238 91.808 149.502 91.808ZM160.952 82.896L156.6 100.8H154.808L159.144 82.896H160.952ZM165.647 88V86.336H168.975V98H167.135V88H165.647ZM178.361 87.904H173.001V91.088C173.225 90.7893 173.555 90.5387 173.993 90.336C174.441 90.1333 174.915 90.032 175.417 90.032C176.313 90.032 177.038 90.224 177.593 90.608C178.158 90.992 178.558 91.4773 178.793 92.064C179.038 92.6507 179.161 93.2693 179.161 93.92C179.161 94.7093 179.006 95.4133 178.697 96.032C178.398 96.64 177.945 97.12 177.337 97.472C176.739 97.824 176.003 98 175.129 98C173.966 98 173.033 97.712 172.329 97.136C171.625 96.56 171.203 95.7973 171.065 94.848H172.841C172.958 95.3493 173.219 95.7493 173.625 96.048C174.03 96.336 174.537 96.48 175.145 96.48C175.902 96.48 176.467 96.2507 176.841 95.792C177.225 95.3333 177.417 94.7253 177.417 93.968C177.417 93.2 177.225 92.6133 176.841 92.208C176.457 91.792 175.891 91.584 175.145 91.584C174.622 91.584 174.179 91.7173 173.817 91.984C173.465 92.24 173.209 92.592 173.049 93.04H171.321V86.304H178.361V87.904ZM180.195 95.568V94.192L185.571 86.48H187.779V93.984H189.267V95.568H187.779V98H185.987V95.568H180.195ZM186.067 88.336L182.291 93.984H186.067V88.336ZM190.139 92.016C190.139 90.1707 190.448 88.7307 191.067 87.696C191.696 86.6507 192.773 86.128 194.299 86.128C195.824 86.128 196.896 86.6507 197.515 87.696C198.144 88.7307 198.459 90.1707 198.459 92.016C198.459 93.8827 198.144 95.344 197.515 96.4C196.896 97.4453 195.824 97.968 194.299 97.968C192.773 97.968 191.696 97.4453 191.067 96.4C190.448 95.344 190.139 93.8827 190.139 92.016ZM196.667 92.016C196.667 91.152 196.608 90.4213 196.491 89.824C196.384 89.2267 196.16 88.7413 195.819 88.368C195.477 87.984 194.971 87.792 194.299 87.792C193.627 87.792 193.12 87.984 192.779 88.368C192.437 88.7413 192.208 89.2267 192.091 89.824C191.984 90.4213 191.931 91.152 191.931 92.016C191.931 92.912 191.984 93.664 192.091 94.272C192.197 94.88 192.421 95.3707 192.763 95.744C193.115 96.1173 193.627 96.304 194.299 96.304C194.971 96.304 195.477 96.1173 195.819 95.744C196.171 95.3707 196.4 94.88 196.507 94.272C196.613 93.664 196.667 92.912 196.667 92.016ZM199.509 88V86.336H202.837V98H200.997V88H199.509ZM205.711 95.52C206.735 94.6347 207.54 93.9093 208.127 93.344C208.724 92.768 209.22 92.1707 209.615 91.552C210.009 90.9333 210.207 90.3147 210.207 89.696C210.207 89.056 210.052 88.5547 209.743 88.192C209.444 87.8293 208.969 87.648 208.319 87.648C207.689 87.648 207.199 87.8507 206.847 88.256C206.505 88.6507 206.324 89.184 206.303 89.856H204.543C204.575 88.64 204.937 87.712 205.631 87.072C206.335 86.4213 207.225 86.096 208.303 86.096C209.465 86.096 210.372 86.416 211.023 87.056C211.684 87.696 212.015 88.5493 212.015 89.616C212.015 90.384 211.817 91.1253 211.423 91.84C211.039 92.544 210.575 93.1787 210.031 93.744C209.497 94.2987 208.815 94.944 207.983 95.68L207.263 96.32H212.335V97.84H204.559V96.512L205.711 95.52Z" fill="#5F6750"/>
</svg>
